<svg width="1024" height="1024" viewBox="0 0 1024 1024" version="1.1" xmlns="http://www.w3.org/2000/svg" xmlns:xlink="http://www.w3.org/1999/xlink">
<title>AppIcon-android</title>
<desc>Created using Figma</desc>
<g id="Canvas" transform="translate(3472 2122)">
<clipPath id="clip-0" clip-rule="evenodd">
<path d="M -3472 -2122L -2448 -2122L -2448 -1098L -3472 -1098L -3472 -2122Z" fill="#FFFFFF"/>
</clipPath>
<g id="AppIcon-android" clip-path="url(#clip-0)">
<g id="border" style="mix-blend-mode:exclusion">
<use xlink:href="#path0_fill" transform="translate(-3472 -2122)" fill="#2E2B29" style="mix-blend-mode:overlay"/>
</g>
<g id="C">
<use xlink:href="#path1_fill" transform="translate(-3275 -2126)" fill="#21A6D0"/>
<use xlink:href="#path2_stroke" transform="translate(-3275 -2126)"/>
</g>
</g>
</g>
<defs>
<path id="path0_fill" d="M 0 140C 0 62.6801 62.6801 0 140 0L 884 0C 961.32 0 1024 62.6801 1024 140L 1024 884C 1024 961.32 961.32 1024 884 1024L 140 1024C 62.6801 1024 0 961.32 0 884L 0 140Z"/>
<path id="path1_fill" d="M 559.167 422.304C 551.401 395.424 540.948 370.635 527.806 347.936C 515.262 325.237 500.031 305.525 482.11 288.8C 464.788 272.075 444.478 259.232 421.182 250.272C 398.484 240.715 372.799 235.936 344.127 235.936C 307.092 235.936 275.732 243.104 250.047 257.44C 224.361 271.776 203.156 291.189 186.431 315.68C 170.302 340.171 158.356 368.544 150.59 400.8C 143.422 433.056 139.839 467.104 139.839 502.944C 139.839 538.784 144.617 573.131 154.175 605.984C 163.732 638.24 177.769 666.613 196.286 691.104C 215.401 715.595 238.996 735.307 267.071 750.24C 295.743 764.576 328.596 771.744 365.63 771.744C 421.182 771.744 468.969 757.707 508.991 729.632C 549.609 701.557 585.449 663.328 616.511 614.944L 638.91 632.864C 618.601 663.328 598.292 690.208 577.982 713.504C 557.673 736.8 535.572 756.512 511.678 772.64C 487.785 788.768 461.801 801.013 433.726 809.376C 405.652 817.739 373.993 821.92 338.75 821.92C 298.729 821.92 260.799 814.453 224.958 799.52C 189.118 783.989 157.758 762.784 130.878 735.904C 103.998 708.427 82.4945 675.872 66.3665 638.24C 50.8358 600.011 43.0705 558.197 43.0705 512.8C 43.0705 467.403 50.8358 425.888 66.3665 388.256C 82.4945 350.027 103.998 317.472 130.878 290.592C 157.758 263.115 189.118 241.909 224.958 226.976C 260.799 211.445 298.729 203.68 338.75 203.68C 360.852 203.68 381.46 205.173 400.574 208.16C 419.689 210.549 437.908 213.237 455.231 216.224C 473.15 219.211 490.174 222.197 506.302 225.184C 523.028 228.171 539.454 229.963 555.583 230.56C 555.583 243.104 555.881 257.739 556.478 274.464C 557.673 291.189 559.167 308.512 560.958 326.432C 562.751 343.755 564.542 361.077 566.335 378.4C 568.127 395.125 569.918 409.76 571.711 422.304L 559.167 422.304Z"/>
<path id="path2_stroke" d="M 559.167 422.304L 559.046 422.339L 559.073 422.429L 559.167 422.429L 559.167 422.304ZM 527.806 347.936L 527.697 347.996L 527.698 347.999L 527.806 347.936ZM 482.11 288.8L 482.024 288.89L 482.025 288.891L 482.11 288.8ZM 421.182 250.272L 421.134 250.387L 421.138 250.389L 421.182 250.272ZM 250.047 257.44L 249.986 257.331L 249.986 257.331L 250.047 257.44ZM 186.431 315.68L 186.327 315.609L 186.326 315.611L 186.431 315.68ZM 150.59 400.8L 150.469 400.771L 150.468 400.773L 150.59 400.8ZM 154.175 605.984L 154.054 606.019L 154.055 606.02L 154.175 605.984ZM 196.286 691.104L 196.187 691.179L 196.188 691.181L 196.286 691.104ZM 267.071 750.24L 267.012 750.35L 267.015 750.352L 267.071 750.24ZM 508.991 729.632L 508.919 729.529L 508.919 729.53L 508.991 729.632ZM 616.511 614.944L 616.589 614.846L 616.48 614.76L 616.405 614.876L 616.511 614.944ZM 638.91 632.864L 639.015 632.933L 639.078 632.838L 638.989 632.766L 638.91 632.864ZM 577.982 713.504L 577.888 713.422L 577.888 713.422L 577.982 713.504ZM 511.678 772.64L 511.609 772.536L 511.609 772.536L 511.678 772.64ZM 433.726 809.376L 433.691 809.256L 433.691 809.256L 433.726 809.376ZM 224.958 799.52L 224.909 799.635L 224.91 799.635L 224.958 799.52ZM 130.878 735.904L 130.789 735.991L 130.79 735.992L 130.878 735.904ZM 66.3665 638.24L 66.2507 638.287L 66.2516 638.289L 66.3665 638.24ZM 66.3665 388.256L 66.2513 388.207L 66.251 388.208L 66.3665 388.256ZM 130.878 290.592L 130.967 290.68L 130.968 290.679L 130.878 290.592ZM 224.958 226.976L 225.007 227.091L 225.008 227.091L 224.958 226.976ZM 400.574 208.16L 400.555 208.284L 400.559 208.284L 400.574 208.16ZM 455.231 216.224L 455.209 216.347L 455.21 216.347L 455.231 216.224ZM 506.302 225.184L 506.28 225.307L 506.281 225.307L 506.302 225.184ZM 555.583 230.56L 555.708 230.56L 555.708 230.44L 555.587 230.435L 555.583 230.56ZM 556.478 274.464L 556.353 274.468L 556.354 274.473L 556.478 274.464ZM 560.958 326.432L 560.834 326.444L 560.834 326.445L 560.958 326.432ZM 566.335 378.4L 566.21 378.413L 566.21 378.413L 566.335 378.4ZM 571.711 422.304L 571.711 422.429L 571.855 422.429L 571.834 422.286L 571.711 422.304ZM 559.287 422.269C 551.519 395.382 541.06 370.579 527.915 347.873L 527.698 347.999C 540.836 370.69 551.283 395.466 559.046 422.339L 559.287 422.269ZM 527.916 347.876C 515.367 325.169 500.123 305.441 482.196 288.709L 482.025 288.891C 499.938 305.609 515.158 325.306 527.697 347.996L 527.916 347.876ZM 482.197 288.71C 464.865 271.976 444.535 259.12 421.227 250.155L 421.138 250.389C 444.422 259.344 464.711 272.173 482.024 288.89L 482.197 288.71ZM 421.231 250.157C 398.52 240.595 372.81 235.812 344.127 235.811L 344.127 236.061C 372.787 236.06 398.448 240.834 421.134 250.387L 421.231 250.157ZM 344.127 235.811C 307.078 235.812 275.687 242.987 249.986 257.331L 250.107 257.549C 275.777 243.221 307.106 236.06 344.127 236.061L 344.127 235.811ZM 249.986 257.331C 224.288 271.675 203.061 291.107 186.327 315.609L 186.534 315.75C 203.25 291.271 224.434 271.877 250.107 257.549L 249.986 257.331ZM 186.326 315.611C 170.192 340.112 158.237 368.505 150.469 400.771L 150.712 400.829C 158.475 368.583 170.413 340.23 186.535 315.749L 186.326 315.611ZM 150.468 400.773C 143.299 433.036 139.714 467.097 139.714 502.944L 139.964 502.944C 139.963 467.111 143.546 433.076 150.713 400.827L 150.468 400.773ZM 139.714 502.944C 139.714 538.793 144.495 573.157 154.054 606.019L 154.295 605.949C 144.739 573.105 139.963 538.775 139.964 502.944L 139.714 502.944ZM 154.055 606.02C 163.615 638.286 177.663 666.679 196.187 691.179L 196.386 691.029C 177.876 666.548 163.848 638.194 154.294 605.948L 154.055 606.02ZM 196.188 691.181C 215.311 715.682 238.926 735.41 267.012 750.35L 267.129 750.13C 239.066 735.203 215.491 715.508 196.385 691.027L 196.188 691.181ZM 267.015 750.352C 295.701 764.694 328.582 771.868 365.63 771.869L 365.63 771.619C 328.609 771.62 295.784 764.458 267.126 750.128L 267.015 750.352ZM 365.63 771.869C 421.2 771.868 469.023 757.819 509.062 729.734L 508.919 729.53C 468.915 757.594 421.165 771.62 365.63 771.619L 365.63 771.869ZM 509.062 729.735C 549.691 701.652 585.548 663.405 616.616 615.012L 616.405 614.876C 585.351 663.251 549.528 701.463 508.919 729.529L 509.062 729.735ZM 616.432 615.042L 638.832 632.962L 638.989 632.766L 616.589 614.846L 616.432 615.042ZM 638.806 632.795C 618.499 663.256 598.195 690.129 577.888 713.422L 578.077 713.586C 598.389 690.287 618.703 663.4 639.015 632.933L 638.806 632.795ZM 577.888 713.422C 557.584 736.712 535.495 756.413 511.609 772.536L 511.748 772.744C 535.649 756.611 557.762 736.888 578.077 713.586L 577.888 713.422ZM 511.609 772.536C 487.723 788.659 461.757 800.897 433.691 809.256L 433.762 809.496C 461.846 801.13 487.847 788.877 511.748 772.744L 511.609 772.536ZM 433.691 809.256C 405.626 817.616 373.985 821.795 338.75 821.795L 338.75 822.045C 374.001 822.045 405.678 817.861 433.762 809.496L 433.691 809.256ZM 338.75 821.795C 298.741 821.796 260.835 814.334 225.007 799.405L 224.91 799.635C 260.762 814.573 298.717 822.044 338.75 822.045L 338.75 821.795ZM 225.008 799.405C 189.179 783.88 157.838 762.688 130.967 735.816L 130.79 735.992C 157.679 762.88 189.058 784.099 224.909 799.635L 225.008 799.405ZM 130.968 735.817C 104.096 708.348 82.6045 675.813 66.4814 638.191L 66.2516 638.289C 82.3845 675.931 103.901 708.505 130.789 735.991L 130.968 735.817ZM 66.4823 638.193C 50.9558 599.976 43.195 558.186 43.1955 512.8L 42.9455 512.8C 42.946 558.209 50.7159 600.046 66.2507 638.287L 66.4823 638.193ZM 43.1955 512.8C 43.195 467.414 50.9557 425.924 66.482 388.304L 66.251 388.208C 50.716 425.852 42.946 467.391 42.9455 512.8L 43.1955 512.8ZM 66.4817 388.305C 82.6047 350.086 104.095 317.551 130.967 290.68L 130.79 290.504C 103.902 317.393 82.3843 349.968 66.2513 388.207L 66.4817 388.305ZM 130.968 290.679C 157.839 263.211 189.178 242.019 225.007 227.091L 224.91 226.861C 189.059 241.799 157.678 263.019 130.789 290.505L 130.968 290.679ZM 225.008 227.091C 260.836 211.565 298.742 203.804 338.75 203.805L 338.75 203.555C 298.717 203.556 260.761 211.326 224.909 226.861L 225.008 227.091ZM 338.75 203.805C 360.847 203.805 381.446 205.298 400.555 208.283L 400.594 208.036C 381.474 205.049 360.856 203.555 338.75 203.555L 338.75 203.805ZM 400.559 208.284C 419.672 210.673 437.888 213.361 455.209 216.347L 455.252 216.101C 437.928 213.114 419.706 210.425 400.59 208.036L 400.559 208.284ZM 455.21 216.347C 473.129 219.334 490.152 222.32 506.28 225.307L 506.325 225.061C 490.197 222.074 473.172 219.087 455.251 216.101L 455.21 216.347ZM 506.281 225.307C 523.01 228.294 539.445 230.087 555.578 230.685L 555.587 230.435C 539.464 229.838 523.046 228.047 506.324 225.061L 506.281 225.307ZM 555.458 230.56C 555.458 243.105 555.756 257.742 556.354 274.468L 556.603 274.46C 556.006 257.735 555.707 243.103 555.708 230.56L 555.458 230.56ZM 556.354 274.473C 557.549 291.199 559.042 308.524 560.834 326.444L 561.083 326.42C 559.291 308.5 557.798 291.18 556.603 274.455L 556.354 274.473ZM 560.834 326.445C 562.626 343.768 564.418 361.09 566.21 378.413L 566.459 378.387C 564.667 361.064 562.875 343.742 561.083 326.419L 560.834 326.445ZM 566.21 378.413C 568.002 395.14 569.795 409.776 571.587 422.322L 571.834 422.286C 570.042 409.744 568.251 395.111 566.459 378.387L 566.21 378.413ZM 571.711 422.179L 559.167 422.179L 559.167 422.429L 571.711 422.429L 571.711 422.179Z"/>
</defs>
</svg>
