<svg width="800" height="442" viewBox="0 0 800 442" version="1.1" xmlns="http://www.w3.org/2000/svg" xmlns:xlink="http://www.w3.org/1999/xlink">
<title>iterative-development</title>
<desc>Created using Figma</desc>
<g id="Canvas" transform="matrix(2 0 0 2 1126 356)">
<g id="iterative-development">
<g id="arrows">
<g id="Vector">
<use xlink:href="#path0_stroke" transform="translate(-452 -160)" fill="#DD0000"/>
</g>
<g id="Vector">
<use xlink:href="#path1_stroke" transform="translate(-352 -160)" fill="#00DD00"/>
</g>
<g id="Vector">
<use xlink:href="#path2_stroke" transform="translate(-352 -55)" fill="#0000DD"/>
</g>
<g id="Vector">
<use xlink:href="#path3_stroke" transform="translate(-452 -55)" fill="#DD8800"/>
</g>
<g id="Vector">
<use xlink:href="#path4_stroke" transform="translate(-557 -155)" fill="#DD0088"/>
</g>
<g id="Vector">
<use xlink:href="#path5_stroke" transform="translate(-257 -55)" fill="#8800DD"/>
</g>
<g id="Vector">
<use xlink:href="#path6_fill" transform="translate(-491.8 -93)" fill="#DD0088"/>
</g>
<g id="Vector">
<use xlink:href="#path7_fill" transform="translate(-300 -104.8)" fill="#00DD00"/>
</g>
<g id="Vector">
<use xlink:href="#path6_fill" transform="translate(-396.8 -178)" fill="#DD0000"/>
</g>
<g id="Vector">
<use xlink:href="#path8_fill" transform="translate(-366 -3)" fill="#0000DD"/>
</g>
<g id="Vector">
<use xlink:href="#path9_fill" transform="translate(-470 -69)" fill="#DD8800"/>
</g>
<g id="Vector">
<use xlink:href="#path10_fill" transform="translate(-191.8 7)" fill="#8800DD"/>
</g>
</g>
<g id="texts">
<g id="Initial">
<use xlink:href="#path11_fill" transform="translate(-563 -83)"/>
</g>
<g id="Planning">
<use xlink:href="#path12_fill" transform="translate(-563 -68)"/>
</g>
<g id="Planning">
<use xlink:href="#path13_fill" transform="translate(-512 -129)"/>
</g>
<g id="Requirements">
<use xlink:href="#path14_fill" transform="translate(-527 -169)"/>
</g>
<g id="Analysis &#38; Design">
<use xlink:href="#path15_fill" transform="translate(-307 -170)"/>
</g>
<g id="Implementation">
<use xlink:href="#path16_fill" transform="translate(-269 -124)"/>
</g>
<g id="Deployment">
<use xlink:href="#path17_fill" transform="translate(-244 -64)"/>
</g>
<g id="Testing">
<use xlink:href="#path18_fill" transform="translate(-312 11)"/>
</g>
<g id="Evaluation">
<use xlink:href="#path19_fill" transform="translate(-517 -9)"/>
</g>
</g>
</g>
</g>
<defs>
<path id="path0_stroke" d="M -6 70C -6 73.3137 -3.31371 76 0 76C 3.31371 76 6 73.3137 6 70L -6 70ZM 70 6C 73.3137 6 76 3.31371 76 -1.159e-14C 76 -3.31371 73.3137 -6 70 -6L 70 6ZM 6 70C 6 53.0261 12.7428 36.7475 24.7452 24.7452L 16.2599 16.2599C 2.00711 30.5127 -6 49.8435 -6 70L 6 70ZM 24.7452 24.7452C 36.7475 12.7428 53.0261 6 70 6L 70 -6C 49.8435 -6 30.5126 2.00712 16.2599 16.2599L 24.7452 24.7452Z"/>
<path id="path1_stroke" d="M 2.31887e-15 -6C -3.31371 -6 -6 -3.31371 -6 -2.31887e-15C -6 3.31371 -3.31371 6 -2.31887e-15 6L 2.31887e-15 -6ZM 64 70C 64 73.3137 66.6863 76 70 76C 73.3137 76 76 73.3137 76 70L 64 70ZM -2.31887e-15 6C 8.60443 5.97111 16.5533 7.55224 24.4917 10.8717L 29.0839 -0.214845C 20.0368 -3.93104 9.78063 -5.97111 2.31887e-15 -6L -2.31887e-15 6ZM 24.4917 10.8717C 32.4523 14.1378 39.191 18.6405 45.2548 24.7452L 53.7401 16.2599C 46.8037 9.36436 38.109 3.55473 29.0839 -0.214845L 24.4917 10.8717ZM 45.2548 24.7452C 51.3595 30.809 55.8622 37.5478 59.1283 45.5083L 70.2148 40.9161C 66.4453 31.891 60.6356 23.1963 53.7401 16.2599L 45.2548 24.7452ZM 59.1283 45.5083C 62.4478 53.4467 64.0289 61.3956 64 70L 76 70C 75.9711 60.2194 73.931 49.9632 70.2148 40.9161L 59.1283 45.5083Z"/>
<path id="path2_stroke" d="M 76 -3.71019e-14C 76 -3.31371 73.3137 -6 70 -6C 66.6863 -6 64 -3.31371 64 3.71019e-14L 76 -3.71019e-14ZM 0 64C -3.31371 64 -6 66.6863 -6 70C -6 73.3137 -3.31371 76 0 76L 0 64ZM 64 3.71019e-14C 64.0289 8.60443 62.4478 16.5533 59.1283 24.4917L 70.2148 29.0839C 73.931 20.0368 75.9711 9.78063 76 -3.71019e-14L 64 3.71019e-14ZM 59.1283 24.4917C 55.8622 32.4523 51.3595 39.191 45.2548 45.2548L 53.7401 53.7401C 60.6356 46.8037 66.4453 38.109 70.2148 29.0839L 59.1283 24.4917ZM 45.2548 45.2548C 39.191 51.3595 32.4523 55.8622 24.4917 59.1283L 29.0839 70.2148C 38.109 66.4453 46.8037 60.6356 53.7401 53.7401L 45.2548 45.2548ZM 24.4917 59.1283C 16.5533 62.4478 8.60443 64.0289 0 64L 0 76C 9.78063 75.9711 20.0368 73.931 29.0839 70.2148L 24.4917 59.1283Z"/>
<path id="path3_stroke" d="M 70 76C 73.3137 76 76 73.3137 76 70C 76 66.6863 73.3137 64 70 64L 70 76ZM 6 -2.84217e-14C 6 -3.31371 3.31371 -6 -2.84217e-14 -6C -3.31371 -6 -6 -3.31371 -6 -2.84217e-14L 6 -2.84217e-14ZM 70 64C 53.0261 64 36.7475 57.2572 24.7452 45.2548L 16.2599 53.7401C 30.5126 67.9929 49.8435 76 70 76L 70 64ZM 24.7452 45.2548C 12.7428 33.2525 6 16.9739 6 -2.84217e-14L -6 -2.84217e-14C -6 20.1565 2.00711 39.4874 16.2599 53.7401L 24.7452 45.2548Z"/>
<path id="path4_stroke" d="M 6 0C 6 -3.31371 3.31371 -6 0 -6C -3.31371 -6 -6 -3.31371 -6 0L 6 0ZM 80 86C 83.3137 86 86 83.3137 86 80C 86 76.6863 83.3137 74 80 74L 80 86ZM -6 0C -6 22.8086 3.06069 44.6831 19.1888 60.8112L 27.6741 52.3259C 13.7964 38.4482 6 19.626 6 0L -6 0ZM 19.1888 60.8112C 35.3169 76.9393 57.1914 86 80 86L 80 74C 60.374 74 41.5518 66.2036 27.6741 52.3259L 19.1888 60.8112Z"/>
<path id="path5_stroke" d="M 6 0C 6 -3.31371 3.31371 -6 0 -6C -3.31371 -6 -6 -3.31371 -6 0L 6 0ZM 80 86C 83.3137 86 86 83.3137 86 80C 86 76.6863 83.3137 74 80 74L 80 86ZM -6 0C -6 22.8086 3.06069 44.6831 19.1888 60.8112L 27.6741 52.3259C 13.7964 38.4482 6 19.626 6 0L -6 0ZM 19.1888 60.8112C 35.3169 76.9393 57.1914 86 80 86L 80 74C 60.374 74 41.5518 66.2036 27.6741 52.3259L 19.1888 60.8112Z"/>
<path id="path6_fill" d="M 28.8 18L -3.05176e-06 0L -3.05176e-06 36L 28.8 18Z"/>
<path id="path7_fill" d="M 18 28.8L 36 -3.05176e-06L 0 -3.05176e-06L 18 28.8Z"/>
<path id="path8_fill" d="M 0 18L 28.8 36L 28.8 0L 0 18Z"/>
<path id="path9_fill" d="M 18 0L 0 28.8L 36 28.8L 18 0"/>
<path id="path10_fill" d="M 28.8 18L 1.2207e-05 0L 1.2207e-05 36L 28.8 18Z"/>
<path id="path11_fill" d="M 1.162 14L 1.162 4.844L 2.786 4.844L 2.786 14L 1.162 14ZM 4.97317 14L 4.97317 7.126L 6.30317 7.126L 6.41517 8.05L 6.47117 8.05C 6.77917 7.75133 7.11051 7.49467 7.46517 7.28C 7.82917 7.06533 8.24917 6.958 8.72517 6.958C 9.46251 6.958 9.99917 7.196 10.3352 7.672C 10.6712 8.13867 10.8392 8.81067 10.8392 9.688L 10.8392 14L 9.22917 14L 9.22917 9.898C 9.22917 9.32867 9.14517 8.92733 8.97717 8.694C 8.80917 8.46067 8.53384 8.344 8.15117 8.344C 7.85251 8.344 7.58651 8.41867 7.35317 8.568C 7.12917 8.708 6.87251 8.918 6.58317 9.198L 6.58317 14L 4.97317 14ZM 12.8072 14L 12.8072 7.126L 14.4172 7.126L 14.4172 14L 12.8072 14ZM 13.6192 5.922C 13.3298 5.922 13.0918 5.838 12.9052 5.67C 12.7185 5.502 12.6252 5.28267 12.6252 5.012C 12.6252 4.74133 12.7185 4.522 12.9052 4.354C 13.0918 4.17667 13.3298 4.088 13.6192 4.088C 13.9085 4.088 14.1465 4.17667 14.3332 4.354C 14.5198 4.522 14.6132 4.74133 14.6132 5.012C 14.6132 5.28267 14.5198 5.502 14.3332 5.67C 14.1465 5.838 13.9085 5.922 13.6192 5.922ZM 18.8932 14.168C 18.4919 14.168 18.1512 14.1073 17.8712 13.986C 17.6006 13.8647 17.3766 13.6967 17.1992 13.482C 17.0312 13.258 16.9052 12.9967 16.8212 12.698C 16.7466 12.39 16.7092 12.0493 16.7092 11.676L 16.7092 8.4L 15.7292 8.4L 15.7292 7.196L 16.7932 7.126L 16.9892 5.25L 18.3332 5.25L 18.3332 7.126L 20.0832 7.126L 20.0832 8.4L 18.3332 8.4L 18.3332 11.676C 18.3332 12.4787 18.6552 12.88 19.2992 12.88C 19.4206 12.88 19.5419 12.866 19.6632 12.838C 19.7939 12.81 19.9106 12.7727 20.0132 12.726L 20.2932 13.916C 20.1066 13.9813 19.8919 14.0373 19.6492 14.084C 19.4159 14.14 19.1639 14.168 18.8932 14.168ZM 21.5298 14L 21.5298 7.126L 23.1398 7.126L 23.1398 14L 21.5298 14ZM 22.3418 5.922C 22.0525 5.922 21.8145 5.838 21.6278 5.67C 21.4411 5.502 21.3478 5.28267 21.3478 5.012C 21.3478 4.74133 21.4411 4.522 21.6278 4.354C 21.8145 4.17667 22.0525 4.088 22.3418 4.088C 22.6311 4.088 22.8691 4.17667 23.0558 4.354C 23.2425 4.522 23.3358 4.74133 23.3358 5.012C 23.3358 5.28267 23.2425 5.502 23.0558 5.67C 22.8691 5.838 22.6311 5.922 22.3418 5.922ZM 26.8599 14.168C 26.2532 14.168 25.7632 13.986 25.3899 13.622C 25.0165 13.2487 24.8299 12.7587 24.8299 12.152C 24.8299 11.788 24.9045 11.466 25.0539 11.186C 25.2125 10.8967 25.4552 10.6493 25.7819 10.444C 26.1179 10.2387 26.5379 10.066 27.0419 9.926C 27.5552 9.786 28.1665 9.67867 28.8759 9.604C 28.8665 9.42667 28.8385 9.25867 28.7919 9.1C 28.7545 8.932 28.6845 8.78733 28.5819 8.666C 28.4885 8.53533 28.3625 8.43733 28.2039 8.372C 28.0452 8.29733 27.8492 8.26 27.6159 8.26C 27.2799 8.26 26.9485 8.32533 26.6219 8.456C 26.3045 8.58667 25.9919 8.74533 25.6839 8.932L 25.0959 7.854C 25.4785 7.61133 25.9079 7.40133 26.3839 7.224C 26.8599 7.04667 27.3732 6.958 27.9239 6.958C 28.7825 6.958 29.4219 7.21467 29.8419 7.728C 30.2712 8.232 30.4859 8.96467 30.4859 9.926L 30.4859 14L 29.1559 14L 29.0439 13.244L 28.9879 13.244C 28.6799 13.5053 28.3485 13.7247 27.9939 13.902C 27.6485 14.0793 27.2705 14.168 26.8599 14.168ZM 27.3779 12.908C 27.6579 12.908 27.9099 12.8427 28.1339 12.712C 28.3672 12.5813 28.6145 12.3947 28.8759 12.152L 28.8759 10.612C 28.4092 10.668 28.0172 10.7427 27.6999 10.836C 27.3825 10.9293 27.1259 11.0367 26.9299 11.158C 26.7339 11.27 26.5939 11.4007 26.5099 11.55C 26.4259 11.6993 26.3839 11.858 26.3839 12.026C 26.3839 12.334 26.4772 12.558 26.6639 12.698C 26.8505 12.838 27.0885 12.908 27.3779 12.908ZM 33.9806 14.168C 33.402 14.168 32.996 13.9953 32.7626 13.65C 32.5293 13.3047 32.4126 12.8333 32.4126 12.236L 32.4126 4.116L 34.0226 4.116L 34.0226 12.32C 34.0226 12.516 34.06 12.656 34.1346 12.74C 34.2093 12.8147 34.2886 12.852 34.3726 12.852C 34.41 12.852 34.4426 12.852 34.4706 12.852C 34.508 12.852 34.5593 12.8427 34.6246 12.824L 34.8346 14.028C 34.62 14.1213 34.3353 14.168 33.9806 14.168Z"/>
<path id="path12_fill" d="M 1.162 14L 1.162 4.844L 4.046 4.844C 4.55 4.844 5.01667 4.89067 5.446 4.984C 5.88467 5.07733 6.26267 5.236 6.58 5.46C 6.89733 5.684 7.14467 5.978 7.322 6.342C 7.49933 6.69667 7.588 7.14 7.588 7.672C 7.588 8.176 7.49933 8.61467 7.322 8.988C 7.14467 9.36133 6.89733 9.674 6.58 9.926C 6.272 10.1687 5.90333 10.3507 5.474 10.472C 5.054 10.584 4.59667 10.64 4.102 10.64L 2.786 10.64L 2.786 14L 1.162 14ZM 2.786 9.338L 3.976 9.338C 5.32 9.338 5.992 8.78267 5.992 7.672C 5.992 7.09333 5.81467 6.69667 5.46 6.482C 5.11467 6.258 4.60133 6.146 3.92 6.146L 2.786 6.146L 2.786 9.338ZM 10.7384 14.168C 10.1598 14.168 9.75377 13.9953 9.52044 13.65C 9.2871 13.3047 9.17044 12.8333 9.17044 12.236L 9.17044 4.116L 10.7804 4.116L 10.7804 12.32C 10.7804 12.516 10.8178 12.656 10.8924 12.74C 10.9671 12.8147 11.0464 12.852 11.1304 12.852C 11.1678 12.852 11.2004 12.852 11.2284 12.852C 11.2658 12.852 11.3171 12.8427 11.3824 12.824L 11.5924 14.028C 11.3778 14.1213 11.0931 14.168 10.7384 14.168ZM 14.6372 14.168C 14.0306 14.168 13.5406 13.986 13.1672 13.622C 12.7939 13.2487 12.6072 12.7587 12.6072 12.152C 12.6072 11.788 12.6819 11.466 12.8312 11.186C 12.9899 10.8967 13.2326 10.6493 13.5592 10.444C 13.8952 10.2387 14.3152 10.066 14.8192 9.926C 15.3326 9.786 15.9439 9.67867 16.6532 9.604C 16.6439 9.42667 16.6159 9.25867 16.5692 9.1C 16.5319 8.932 16.4619 8.78733 16.3592 8.666C 16.2659 8.53533 16.1399 8.43733 15.9812 8.372C 15.8226 8.29733 15.6266 8.26 15.3932 8.26C 15.0572 8.26 14.7259 8.32533 14.3992 8.456C 14.0819 8.58667 13.7692 8.74533 13.4612 8.932L 12.8732 7.854C 13.2559 7.61133 13.6852 7.40133 14.1612 7.224C 14.6372 7.04667 15.1506 6.958 15.7012 6.958C 16.5599 6.958 17.1992 7.21467 17.6192 7.728C 18.0486 8.232 18.2632 8.96467 18.2632 9.926L 18.2632 14L 16.9332 14L 16.8212 13.244L 16.7652 13.244C 16.4572 13.5053 16.1259 13.7247 15.7712 13.902C 15.4259 14.0793 15.0479 14.168 14.6372 14.168ZM 15.1552 12.908C 15.4352 12.908 15.6872 12.8427 15.9112 12.712C 16.1446 12.5813 16.3919 12.3947 16.6532 12.152L 16.6532 10.612C 16.1866 10.668 15.7946 10.7427 15.4772 10.836C 15.1599 10.9293 14.9032 11.0367 14.7072 11.158C 14.5112 11.27 14.3712 11.4007 14.2872 11.55C 14.2032 11.6993 14.1612 11.858 14.1612 12.026C 14.1612 12.334 14.2546 12.558 14.4412 12.698C 14.6279 12.838 14.8659 12.908 15.1552 12.908ZM 20.19 14L 20.19 7.126L 21.52 7.126L 21.632 8.05L 21.688 8.05C 21.996 7.75133 22.3273 7.49467 22.682 7.28C 23.046 7.06533 23.466 6.958 23.942 6.958C 24.6793 6.958 25.216 7.196 25.552 7.672C 25.888 8.13867 26.056 8.81067 26.056 9.688L 26.056 14L 24.446 14L 24.446 9.898C 24.446 9.32867 24.362 8.92733 24.194 8.694C 24.026 8.46067 23.7506 8.344 23.368 8.344C 23.0693 8.344 22.8033 8.41867 22.57 8.568C 22.346 8.708 22.0893 8.918 21.8 9.198L 21.8 14L 20.19 14ZM 28.024 14L 28.024 7.126L 29.354 7.126L 29.466 8.05L 29.522 8.05C 29.83 7.75133 30.1613 7.49467 30.516 7.28C 30.88 7.06533 31.3 6.958 31.776 6.958C 32.5133 6.958 33.05 7.196 33.386 7.672C 33.722 8.13867 33.89 8.81067 33.89 9.688L 33.89 14L 32.28 14L 32.28 9.898C 32.28 9.32867 32.196 8.92733 32.028 8.694C 31.86 8.46067 31.5846 8.344 31.202 8.344C 30.9033 8.344 30.6373 8.41867 30.404 8.568C 30.18 8.708 29.9233 8.918 29.634 9.198L 29.634 14L 28.024 14ZM 35.8579 14L 35.8579 7.126L 37.4679 7.126L 37.4679 14L 35.8579 14ZM 36.6699 5.922C 36.3806 5.922 36.1426 5.838 35.9559 5.67C 35.7693 5.502 35.6759 5.28267 35.6759 5.012C 35.6759 4.74133 35.7693 4.522 35.9559 4.354C 36.1426 4.17667 36.3806 4.088 36.6699 4.088C 36.9593 4.088 37.1973 4.17667 37.3839 4.354C 37.5706 4.522 37.6639 4.74133 37.6639 5.012C 37.6639 5.28267 37.5706 5.502 37.3839 5.67C 37.1973 5.838 36.9593 5.922 36.6699 5.922ZM 39.522 14L 39.522 7.126L 40.852 7.126L 40.964 8.05L 41.02 8.05C 41.328 7.75133 41.6593 7.49467 42.014 7.28C 42.378 7.06533 42.798 6.958 43.274 6.958C 44.0113 6.958 44.548 7.196 44.884 7.672C 45.22 8.13867 45.388 8.81067 45.388 9.688L 45.388 14L 43.778 14L 43.778 9.898C 43.778 9.32867 43.694 8.92733 43.526 8.694C 43.358 8.46067 43.0827 8.344 42.7 8.344C 42.4013 8.344 42.1353 8.41867 41.902 8.568C 41.678 8.708 41.4213 8.918 41.132 9.198L 41.132 14L 39.522 14ZM 49.75 17.038C 49.3393 17.038 48.9567 17.0007 48.602 16.926C 48.2567 16.8513 47.958 16.7393 47.706 16.59C 47.454 16.4407 47.2533 16.254 47.104 16.03C 46.964 15.806 46.894 15.5447 46.894 15.246C 46.894 14.9567 46.978 14.686 47.146 14.434C 47.314 14.1913 47.5567 13.972 47.874 13.776L 47.874 13.72C 47.6967 13.608 47.5473 13.4587 47.426 13.272C 47.314 13.0853 47.258 12.852 47.258 12.572C 47.258 12.3013 47.3327 12.0587 47.482 11.844C 47.6407 11.62 47.818 11.438 48.014 11.298L 48.014 11.242C 47.7807 11.0647 47.5707 10.822 47.384 10.514C 47.2067 10.1967 47.118 9.83267 47.118 9.422C 47.118 9.03 47.1927 8.68 47.342 8.372C 47.4913 8.064 47.6873 7.80733 47.93 7.602C 48.182 7.38733 48.4713 7.22867 48.798 7.126C 49.1247 7.014 49.47 6.958 49.834 6.958C 50.0207 6.958 50.198 6.97667 50.366 7.014C 50.5433 7.042 50.702 7.07933 50.842 7.126L 53.306 7.126L 53.306 8.316L 52.046 8.316C 52.158 8.44667 52.2513 8.61467 52.326 8.82C 52.4007 9.016 52.438 9.23533 52.438 9.478C 52.438 9.86067 52.368 10.1967 52.228 10.486C 52.0973 10.7753 51.9153 11.018 51.682 11.214C 51.4487 11.41 51.1733 11.5593 50.856 11.662C 50.5387 11.7647 50.198 11.816 49.834 11.816C 49.6847 11.816 49.5307 11.802 49.372 11.774C 49.2133 11.746 49.0547 11.6993 48.896 11.634C 48.7933 11.7273 48.7093 11.8207 48.644 11.914C 48.588 12.0073 48.56 12.1333 48.56 12.292C 48.56 12.488 48.6393 12.642 48.798 12.754C 48.966 12.866 49.26 12.922 49.68 12.922L 50.898 12.922C 51.7287 12.922 52.354 13.0573 52.774 13.328C 53.2033 13.5893 53.418 14.0187 53.418 14.616C 53.418 14.952 53.3293 15.2693 53.152 15.568C 52.984 15.8667 52.7413 16.1233 52.424 16.338C 52.1067 16.5527 51.7193 16.7207 51.262 16.842C 50.814 16.9727 50.31 17.038 49.75 17.038ZM 49.834 10.808C 50.1607 10.808 50.4407 10.6913 50.674 10.458C 50.9073 10.2153 51.024 9.87 51.024 9.422C 51.024 8.99267 50.9073 8.66133 50.674 8.428C 50.45 8.18533 50.17 8.064 49.834 8.064C 49.498 8.064 49.2133 8.18067 48.98 8.414C 48.7467 8.64733 48.63 8.98333 48.63 9.422C 48.63 9.87 48.7467 10.2153 48.98 10.458C 49.2133 10.6913 49.498 10.808 49.834 10.808ZM 50.002 15.988C 50.562 15.988 51.01 15.876 51.346 15.652C 51.6913 15.4373 51.864 15.1807 51.864 14.882C 51.864 14.6113 51.7567 14.4293 51.542 14.336C 51.3367 14.2427 51.038 14.196 50.646 14.196L 49.708 14.196C 49.3347 14.196 49.022 14.1633 48.77 14.098C 48.4153 14.3687 48.238 14.672 48.238 15.008C 48.238 15.316 48.392 15.554 48.7 15.722C 49.0173 15.8993 49.4513 15.988 50.002 15.988Z"/>
<path id="path13_fill" d="M 1.55458 14L 1.55458 4.844L 4.43858 4.844C 4.94258 4.844 5.40924 4.89067 5.83858 4.984C 6.27724 5.07733 6.65524 5.236 6.97258 5.46C 7.28991 5.684 7.53724 5.978 7.71458 6.342C 7.89191 6.69667 7.98058 7.14 7.98058 7.672C 7.98058 8.176 7.89191 8.61467 7.71458 8.988C 7.53724 9.36133 7.28991 9.674 6.97258 9.926C 6.66458 10.1687 6.29591 10.3507 5.86658 10.472C 5.44658 10.584 4.98924 10.64 4.49458 10.64L 3.17858 10.64L 3.17858 14L 1.55458 14ZM 3.17858 9.338L 4.36858 9.338C 5.71258 9.338 6.38458 8.78267 6.38458 7.672C 6.38458 7.09333 6.20724 6.69667 5.85258 6.482C 5.50724 6.258 4.99391 6.146 4.31258 6.146L 3.17858 6.146L 3.17858 9.338ZM 11.131 14.168C 10.5523 14.168 10.1463 13.9953 9.91302 13.65C 9.67968 13.3047 9.56302 12.8333 9.56302 12.236L 9.56302 4.116L 11.173 4.116L 11.173 12.32C 11.173 12.516 11.2103 12.656 11.285 12.74C 11.3597 12.8147 11.439 12.852 11.523 12.852C 11.5603 12.852 11.593 12.852 11.621 12.852C 11.6583 12.852 11.7097 12.8427 11.775 12.824L 11.985 14.028C 11.7703 14.1213 11.4857 14.168 11.131 14.168ZM 15.0298 14.168C 14.4231 14.168 13.9331 13.986 13.5598 13.622C 13.1865 13.2487 12.9998 12.7587 12.9998 12.152C 12.9998 11.788 13.0745 11.466 13.2238 11.186C 13.3825 10.8967 13.6251 10.6493 13.9518 10.444C 14.2878 10.2387 14.7078 10.066 15.2118 9.926C 15.7251 9.786 16.3365 9.67867 17.0458 9.604C 17.0365 9.42667 17.0085 9.25867 16.9618 9.1C 16.9245 8.932 16.8545 8.78733 16.7518 8.666C 16.6585 8.53533 16.5325 8.43733 16.3738 8.372C 16.2151 8.29733 16.0191 8.26 15.7858 8.26C 15.4498 8.26 15.1185 8.32533 14.7918 8.456C 14.4745 8.58667 14.1618 8.74533 13.8538 8.932L 13.2658 7.854C 13.6485 7.61133 14.0778 7.40133 14.5538 7.224C 15.0298 7.04667 15.5431 6.958 16.0938 6.958C 16.9525 6.958 17.5918 7.21467 18.0118 7.728C 18.4411 8.232 18.6558 8.96467 18.6558 9.926L 18.6558 14L 17.3258 14L 17.2138 13.244L 17.1578 13.244C 16.8498 13.5053 16.5185 13.7247 16.1638 13.902C 15.8185 14.0793 15.4405 14.168 15.0298 14.168ZM 15.5478 12.908C 15.8278 12.908 16.0798 12.8427 16.3038 12.712C 16.5371 12.5813 16.7845 12.3947 17.0458 12.152L 17.0458 10.612C 16.5791 10.668 16.1871 10.7427 15.8698 10.836C 15.5525 10.9293 15.2958 11.0367 15.0998 11.158C 14.9038 11.27 14.7638 11.4007 14.6798 11.55C 14.5958 11.6993 14.5538 11.858 14.5538 12.026C 14.5538 12.334 14.6471 12.558 14.8338 12.698C 15.0205 12.838 15.2585 12.908 15.5478 12.908ZM 20.5825 14L 20.5825 7.126L 21.9125 7.126L 22.0245 8.05L 22.0805 8.05C 22.3885 7.75133 22.7199 7.49467 23.0745 7.28C 23.4385 7.06533 23.8585 6.958 24.3345 6.958C 25.0719 6.958 25.6085 7.196 25.9445 7.672C 26.2805 8.13867 26.4485 8.81067 26.4485 9.688L 26.4485 14L 24.8385 14L 24.8385 9.898C 24.8385 9.32867 24.7545 8.92733 24.5865 8.694C 24.4185 8.46067 24.1432 8.344 23.7605 8.344C 23.4619 8.344 23.1959 8.41867 22.9625 8.568C 22.7385 8.708 22.4819 8.918 22.1925 9.198L 22.1925 14L 20.5825 14ZM 28.4165 14L 28.4165 7.126L 29.7465 7.126L 29.8585 8.05L 29.9145 8.05C 30.2225 7.75133 30.5539 7.49467 30.9085 7.28C 31.2725 7.06533 31.6925 6.958 32.1685 6.958C 32.9059 6.958 33.4425 7.196 33.7785 7.672C 34.1145 8.13867 34.2825 8.81067 34.2825 9.688L 34.2825 14L 32.6725 14L 32.6725 9.898C 32.6725 9.32867 32.5885 8.92733 32.4205 8.694C 32.2525 8.46067 31.9772 8.344 31.5945 8.344C 31.2959 8.344 31.0299 8.41867 30.7965 8.568C 30.5725 8.708 30.3159 8.918 30.0265 9.198L 30.0265 14L 28.4165 14ZM 36.2505 14L 36.2505 7.126L 37.8605 7.126L 37.8605 14L 36.2505 14ZM 37.0625 5.922C 36.7732 5.922 36.5352 5.838 36.3485 5.67C 36.1618 5.502 36.0685 5.28267 36.0685 5.012C 36.0685 4.74133 36.1618 4.522 36.3485 4.354C 36.5352 4.17667 36.7732 4.088 37.0625 4.088C 37.3518 4.088 37.5898 4.17667 37.7765 4.354C 37.9632 4.522 38.0565 4.74133 38.0565 5.012C 38.0565 5.28267 37.9632 5.502 37.7765 5.67C 37.5898 5.838 37.3518 5.922 37.0625 5.922ZM 39.9146 14L 39.9146 7.126L 41.2446 7.126L 41.3566 8.05L 41.4126 8.05C 41.7206 7.75133 42.0519 7.49467 42.4066 7.28C 42.7706 7.06533 43.1906 6.958 43.6666 6.958C 44.4039 6.958 44.9406 7.196 45.2766 7.672C 45.6126 8.13867 45.7806 8.81067 45.7806 9.688L 45.7806 14L 44.1706 14L 44.1706 9.898C 44.1706 9.32867 44.0866 8.92733 43.9186 8.694C 43.7506 8.46067 43.4752 8.344 43.0926 8.344C 42.7939 8.344 42.5279 8.41867 42.2946 8.568C 42.0706 8.708 41.8139 8.918 41.5246 9.198L 41.5246 14L 39.9146 14ZM 50.1426 17.038C 49.7319 17.038 49.3492 17.0007 48.9946 16.926C 48.6492 16.8513 48.3506 16.7393 48.0986 16.59C 47.8466 16.4407 47.6459 16.254 47.4966 16.03C 47.3566 15.806 47.2866 15.5447 47.2866 15.246C 47.2866 14.9567 47.3706 14.686 47.5386 14.434C 47.7066 14.1913 47.9492 13.972 48.2666 13.776L 48.2666 13.72C 48.0892 13.608 47.9399 13.4587 47.8186 13.272C 47.7066 13.0853 47.6506 12.852 47.6506 12.572C 47.6506 12.3013 47.7252 12.0587 47.8746 11.844C 48.0332 11.62 48.2106 11.438 48.4066 11.298L 48.4066 11.242C 48.1732 11.0647 47.9632 10.822 47.7766 10.514C 47.5992 10.1967 47.5106 9.83267 47.5106 9.422C 47.5106 9.03 47.5852 8.68 47.7346 8.372C 47.8839 8.064 48.0799 7.80733 48.3226 7.602C 48.5746 7.38733 48.8639 7.22867 49.1906 7.126C 49.5172 7.014 49.8626 6.958 50.2266 6.958C 50.4132 6.958 50.5906 6.97667 50.7586 7.014C 50.9359 7.042 51.0946 7.07933 51.2346 7.126L 53.6986 7.126L 53.6986 8.316L 52.4386 8.316C 52.5506 8.44667 52.6439 8.61467 52.7186 8.82C 52.7932 9.016 52.8306 9.23533 52.8306 9.478C 52.8306 9.86067 52.7606 10.1967 52.6206 10.486C 52.4899 10.7753 52.3079 11.018 52.0746 11.214C 51.8412 11.41 51.5659 11.5593 51.2486 11.662C 50.9312 11.7647 50.5906 11.816 50.2266 11.816C 50.0772 11.816 49.9232 11.802 49.7646 11.774C 49.6059 11.746 49.4472 11.6993 49.2886 11.634C 49.1859 11.7273 49.1019 11.8207 49.0366 11.914C 48.9806 12.0073 48.9526 12.1333 48.9526 12.292C 48.9526 12.488 49.0319 12.642 49.1906 12.754C 49.3586 12.866 49.6526 12.922 50.0726 12.922L 51.2906 12.922C 52.1212 12.922 52.7466 13.0573 53.1666 13.328C 53.5959 13.5893 53.8106 14.0187 53.8106 14.616C 53.8106 14.952 53.7219 15.2693 53.5446 15.568C 53.3766 15.8667 53.1339 16.1233 52.8166 16.338C 52.4992 16.5527 52.1119 16.7207 51.6546 16.842C 51.2066 16.9727 50.7026 17.038 50.1426 17.038ZM 50.2266 10.808C 50.5532 10.808 50.8332 10.6913 51.0666 10.458C 51.2999 10.2153 51.4166 9.87 51.4166 9.422C 51.4166 8.99267 51.2999 8.66133 51.0666 8.428C 50.8426 8.18533 50.5626 8.064 50.2266 8.064C 49.8906 8.064 49.6059 8.18067 49.3726 8.414C 49.1392 8.64733 49.0226 8.98333 49.0226 9.422C 49.0226 9.87 49.1392 10.2153 49.3726 10.458C 49.6059 10.6913 49.8906 10.808 50.2266 10.808ZM 50.3946 15.988C 50.9546 15.988 51.4026 15.876 51.7386 15.652C 52.0839 15.4373 52.2566 15.1807 52.2566 14.882C 52.2566 14.6113 52.1492 14.4293 51.9346 14.336C 51.7292 14.2427 51.4306 14.196 51.0386 14.196L 50.1006 14.196C 49.7272 14.196 49.4146 14.1633 49.1626 14.098C 48.8079 14.3687 48.6306 14.672 48.6306 15.008C 48.6306 15.316 48.7846 15.554 49.0926 15.722C 49.4099 15.8993 49.8439 15.988 50.3946 15.988Z"/>
<path id="path14_fill" d="M 1.162 14L 1.162 4.844L 4.256 4.844C 4.732 4.844 5.17533 4.89067 5.586 4.984C 5.99667 5.07733 6.35133 5.23133 6.65 5.446C 6.94867 5.65133 7.182 5.92667 7.35 6.272C 7.52733 6.61733 7.616 7.04667 7.616 7.56C 7.616 8.26 7.448 8.82467 7.112 9.254C 6.78533 9.68333 6.34667 9.99133 5.796 10.178L 7.98 14L 6.16 14L 4.186 10.416L 2.786 10.416L 2.786 14L 1.162 14ZM 2.786 9.128L 4.088 9.128C 4.71333 9.128 5.18933 8.99733 5.516 8.736C 5.852 8.47467 6.02 8.08267 6.02 7.56C 6.02 7.028 5.852 6.65933 5.516 6.454C 5.18933 6.24867 4.71333 6.146 4.088 6.146L 2.786 6.146L 2.786 9.128ZM 12.1104 14.168C 11.6344 14.168 11.1911 14.0887 10.7804 13.93C 10.3698 13.762 10.0104 13.524 9.70244 13.216C 9.39444 12.908 9.15177 12.5347 8.97444 12.096C 8.80644 11.648 8.72244 11.1393 8.72244 10.57C 8.72244 10.01 8.8111 9.506 8.98844 9.058C 9.16577 8.61 9.3991 8.232 9.68844 7.924C 9.9871 7.616 10.3278 7.378 10.7104 7.21C 11.0931 7.042 11.4851 6.958 11.8864 6.958C 12.3531 6.958 12.7638 7.03733 13.1184 7.196C 13.4731 7.35467 13.7671 7.57867 14.0004 7.868C 14.2431 8.15733 14.4251 8.50267 14.5464 8.904C 14.6678 9.30533 14.7284 9.744 14.7284 10.22C 14.7284 10.3787 14.7191 10.528 14.7004 10.668C 14.6911 10.808 14.6771 10.92 14.6584 11.004L 10.2904 11.004C 10.3651 11.62 10.5798 12.096 10.9344 12.432C 11.2984 12.7587 11.7604 12.922 12.3204 12.922C 12.6191 12.922 12.8944 12.88 13.1464 12.796C 13.4078 12.7027 13.6644 12.5767 13.9164 12.418L 14.4624 13.426C 14.1358 13.6407 13.7718 13.818 13.3704 13.958C 12.9691 14.098 12.5491 14.168 12.1104 14.168ZM 10.2764 9.912L 13.3284 9.912C 13.3284 9.38 13.2118 8.96467 12.9784 8.666C 12.7544 8.358 12.4044 8.204 11.9284 8.204C 11.5178 8.204 11.1584 8.34867 10.8504 8.638C 10.5424 8.92733 10.3511 9.352 10.2764 9.912ZM 20.5081 16.716L 20.5081 14.462L 20.5641 13.314C 20.3121 13.5567 20.0228 13.762 19.6961 13.93C 19.3695 14.0887 19.0288 14.168 18.6741 14.168C 17.8061 14.168 17.1155 13.8553 16.6021 13.23C 16.0981 12.5953 15.8461 11.7087 15.8461 10.57C 15.8461 10.01 15.9255 9.506 16.0841 9.058C 16.2521 8.61 16.4715 8.232 16.7421 7.924C 17.0128 7.616 17.3208 7.378 17.6661 7.21C 18.0208 7.042 18.3848 6.958 18.7581 6.958C 19.1501 6.958 19.4908 7.028 19.7801 7.168C 20.0788 7.29867 20.3728 7.504 20.6621 7.784L 20.7041 7.784L 20.8441 7.126L 22.1181 7.126L 22.1181 16.716L 20.5081 16.716ZM 19.0661 12.838C 19.5795 12.838 20.0601 12.5813 20.5081 12.068L 20.5081 8.862C 20.2655 8.64733 20.0275 8.498 19.7941 8.414C 19.5701 8.33 19.3415 8.288 19.1081 8.288C 18.6601 8.288 18.2821 8.484 17.9741 8.876C 17.6661 9.268 17.5121 9.828 17.5121 10.556C 17.5121 11.3027 17.6428 11.872 17.9041 12.264C 18.1748 12.6467 18.5621 12.838 19.0661 12.838ZM 26.2125 14.168C 25.4752 14.168 24.9385 13.9347 24.6025 13.468C 24.2665 12.992 24.0985 12.3153 24.0985 11.438L 24.0985 7.126L 25.7085 7.126L 25.7085 11.228C 25.7085 11.7973 25.7925 12.1987 25.9605 12.432C 26.1285 12.6653 26.3992 12.782 26.7725 12.782C 27.0712 12.782 27.3325 12.7073 27.5565 12.558C 27.7898 12.4087 28.0372 12.166 28.2985 11.83L 28.2985 7.126L 29.9085 7.126L 29.9085 14L 28.5925 14L 28.4665 12.992L 28.4245 12.992C 28.1258 13.3467 27.7992 13.6313 27.4445 13.846C 27.0992 14.0607 26.6885 14.168 26.2125 14.168ZM 31.9478 14L 31.9478 7.126L 33.5578 7.126L 33.5578 14L 31.9478 14ZM 32.7598 5.922C 32.4704 5.922 32.2324 5.838 32.0458 5.67C 31.8591 5.502 31.7658 5.28267 31.7658 5.012C 31.7658 4.74133 31.8591 4.522 32.0458 4.354C 32.2324 4.17667 32.4704 4.088 32.7598 4.088C 33.0491 4.088 33.2871 4.17667 33.4738 4.354C 33.6604 4.522 33.7538 4.74133 33.7538 5.012C 33.7538 5.28267 33.6604 5.502 33.4738 5.67C 33.2871 5.838 33.0491 5.922 32.7598 5.922ZM 35.6118 14L 35.6118 7.126L 36.9418 7.126L 37.0538 8.344L 37.1098 8.344C 37.3525 7.896 37.6465 7.55533 37.9918 7.322C 38.3372 7.07933 38.6918 6.958 39.0558 6.958C 39.3825 6.958 39.6438 7.00467 39.8398 7.098L 39.5598 8.498C 39.4385 8.46067 39.3265 8.43267 39.2238 8.414C 39.1212 8.39533 38.9952 8.386 38.8458 8.386C 38.5752 8.386 38.2905 8.49333 37.9918 8.708C 37.6932 8.91333 37.4365 9.27733 37.2218 9.8L 37.2218 14L 35.6118 14ZM 43.6378 14.168C 43.1618 14.168 42.7184 14.0887 42.3078 13.93C 41.8971 13.762 41.5378 13.524 41.2298 13.216C 40.9218 12.908 40.6791 12.5347 40.5018 12.096C 40.3338 11.648 40.2498 11.1393 40.2498 10.57C 40.2498 10.01 40.3384 9.506 40.5158 9.058C 40.6931 8.61 40.9264 8.232 41.2158 7.924C 41.5144 7.616 41.8551 7.378 42.2378 7.21C 42.6204 7.042 43.0124 6.958 43.4138 6.958C 43.8804 6.958 44.2911 7.03733 44.6458 7.196C 45.0004 7.35467 45.2944 7.57867 45.5278 7.868C 45.7704 8.15733 45.9524 8.50267 46.0738 8.904C 46.1951 9.30533 46.2558 9.744 46.2558 10.22C 46.2558 10.3787 46.2464 10.528 46.2278 10.668C 46.2184 10.808 46.2044 10.92 46.1858 11.004L 41.8178 11.004C 41.8924 11.62 42.1071 12.096 42.4618 12.432C 42.8258 12.7587 43.2878 12.922 43.8478 12.922C 44.1464 12.922 44.4218 12.88 44.6738 12.796C 44.9351 12.7027 45.1918 12.5767 45.4438 12.418L 45.9898 13.426C 45.6631 13.6407 45.2991 13.818 44.8978 13.958C 44.4964 14.098 44.0764 14.168 43.6378 14.168ZM 41.8038 9.912L 44.8558 9.912C 44.8558 9.38 44.7391 8.96467 44.5058 8.666C 44.2818 8.358 43.9318 8.204 43.4558 8.204C 43.0451 8.204 42.6858 8.34867 42.3778 8.638C 42.0698 8.92733 41.8784 9.352 41.8038 9.912ZM 47.7935 14L 47.7935 7.126L 49.1235 7.126L 49.2355 8.064L 49.2915 8.064C 49.5808 7.756 49.8935 7.49467 50.2295 7.28C 50.5748 7.06533 50.9622 6.958 51.3915 6.958C 51.8955 6.958 52.2968 7.06533 52.5955 7.28C 52.9035 7.49467 53.1368 7.798 53.2955 8.19C 53.6222 7.83533 53.9628 7.54133 54.3175 7.308C 54.6722 7.07467 55.0688 6.958 55.5075 6.958C 56.2355 6.958 56.7722 7.196 57.1175 7.672C 57.4628 8.13867 57.6355 8.81067 57.6355 9.688L 57.6355 14L 56.0115 14L 56.0115 9.898C 56.0115 9.32867 55.9228 8.92733 55.7455 8.694C 55.5775 8.46067 55.3162 8.344 54.9615 8.344C 54.5322 8.344 54.0515 8.62867 53.5195 9.198L 53.5195 14L 51.9095 14L 51.9095 9.898C 51.9095 9.32867 51.8208 8.92733 51.6435 8.694C 51.4755 8.46067 51.2095 8.344 50.8455 8.344C 50.4162 8.344 49.9355 8.62867 49.4035 9.198L 49.4035 14L 47.7935 14ZM 62.5323 14.168C 62.0563 14.168 61.613 14.0887 61.2023 13.93C 60.7916 13.762 60.4323 13.524 60.1243 13.216C 59.8163 12.908 59.5736 12.5347 59.3963 12.096C 59.2283 11.648 59.1443 11.1393 59.1443 10.57C 59.1443 10.01 59.233 9.506 59.4103 9.058C 59.5876 8.61 59.821 8.232 60.1103 7.924C 60.409 7.616 60.7496 7.378 61.1323 7.21C 61.515 7.042 61.907 6.958 62.3083 6.958C 62.775 6.958 63.1856 7.03733 63.5403 7.196C 63.895 7.35467 64.189 7.57867 64.4223 7.868C 64.665 8.15733 64.847 8.50267 64.9683 8.904C 65.0896 9.30533 65.1503 9.744 65.1503 10.22C 65.1503 10.3787 65.141 10.528 65.1223 10.668C 65.113 10.808 65.099 10.92 65.0803 11.004L 60.7123 11.004C 60.787 11.62 61.0016 12.096 61.3563 12.432C 61.7203 12.7587 62.1823 12.922 62.7423 12.922C 63.041 12.922 63.3163 12.88 63.5683 12.796C 63.8296 12.7027 64.0863 12.5767 64.3383 12.418L 64.8843 13.426C 64.5576 13.6407 64.1936 13.818 63.7923 13.958C 63.391 14.098 62.971 14.168 62.5323 14.168ZM 60.6983 9.912L 63.7503 9.912C 63.7503 9.38 63.6336 8.96467 63.4003 8.666C 63.1763 8.358 62.8263 8.204 62.3503 8.204C 61.9396 8.204 61.5803 8.34867 61.2723 8.638C 60.9643 8.92733 60.773 9.352 60.6983 9.912ZM 66.688 14L 66.688 7.126L 68.018 7.126L 68.13 8.05L 68.186 8.05C 68.494 7.75133 68.8253 7.49467 69.18 7.28C 69.544 7.06533 69.964 6.958 70.44 6.958C 71.1773 6.958 71.714 7.196 72.05 7.672C 72.386 8.13867 72.554 8.81067 72.554 9.688L 72.554 14L 70.944 14L 70.944 9.898C 70.944 9.32867 70.86 8.92733 70.692 8.694C 70.524 8.46067 70.2487 8.344 69.866 8.344C 69.5673 8.344 69.3013 8.41867 69.068 8.568C 68.844 8.708 68.5873 8.918 68.298 9.198L 68.298 14L 66.688 14ZM 76.944 14.168C 76.5427 14.168 76.202 14.1073 75.922 13.986C 75.6513 13.8647 75.4273 13.6967 75.25 13.482C 75.082 13.258 74.956 12.9967 74.872 12.698C 74.7973 12.39 74.76 12.0493 74.76 11.676L 74.76 8.4L 73.78 8.4L 73.78 7.196L 74.844 7.126L 75.04 5.25L 76.384 5.25L 76.384 7.126L 78.134 7.126L 78.134 8.4L 76.384 8.4L 76.384 11.676C 76.384 12.4787 76.706 12.88 77.35 12.88C 77.4713 12.88 77.5927 12.866 77.714 12.838C 77.8447 12.81 77.9613 12.7727 78.064 12.726L 78.344 13.916C 78.1573 13.9813 77.9427 14.0373 77.7 14.084C 77.4667 14.14 77.2147 14.168 76.944 14.168ZM 81.3619 14.168C 80.8859 14.168 80.4145 14.0793 79.9479 13.902C 79.4905 13.7153 79.0939 13.4867 78.7579 13.216L 79.5139 12.18C 79.8219 12.4227 80.1252 12.614 80.4239 12.754C 80.7319 12.8847 81.0632 12.95 81.4179 12.95C 81.7912 12.95 82.0665 12.8753 82.2439 12.726C 82.4212 12.5673 82.5099 12.3667 82.5099 12.124C 82.5099 11.984 82.4679 11.8627 82.3839 11.76C 82.2999 11.648 82.1879 11.55 82.0479 11.466C 81.9079 11.382 81.7492 11.3073 81.5719 11.242C 81.3945 11.1673 81.2172 11.0927 81.0399 11.018C 80.8159 10.934 80.5872 10.836 80.3539 10.724C 80.1205 10.612 79.9105 10.4767 79.7239 10.318C 79.5465 10.1593 79.3972 9.97733 79.2759 9.772C 79.1639 9.55733 79.1079 9.30533 79.1079 9.016C 79.1079 8.40933 79.3319 7.91467 79.7799 7.532C 80.2279 7.14933 80.8392 6.958 81.6139 6.958C 82.0899 6.958 82.5192 7.042 82.9019 7.21C 83.2845 7.378 83.6159 7.56933 83.8959 7.784L 83.1539 8.764C 82.9112 8.58667 82.6639 8.44667 82.4119 8.344C 82.1692 8.232 81.9125 8.176 81.6419 8.176C 81.2965 8.176 81.0399 8.25067 80.8719 8.4C 80.7132 8.54 80.6339 8.71733 80.6339 8.932C 80.6339 9.072 80.6712 9.19333 80.7459 9.296C 80.8299 9.38933 80.9372 9.47333 81.0679 9.548C 81.1985 9.62267 81.3479 9.69267 81.5159 9.758C 81.6932 9.82333 81.8752 9.88867 82.0619 9.954C 82.2952 10.038 82.5285 10.136 82.7619 10.248C 82.9952 10.3507 83.2052 10.4813 83.3919 10.64C 83.5879 10.7987 83.7419 10.9947 83.8539 11.228C 83.9752 11.452 84.0359 11.7227 84.0359 12.04C 84.0359 12.3387 83.9752 12.6187 83.8539 12.88C 83.7419 13.132 83.5739 13.356 83.3499 13.552C 83.1259 13.7387 82.8459 13.888 82.5099 14C 82.1739 14.112 81.7912 14.168 81.3619 14.168Z"/>
<path id="path15_fill" d="M 3.038 9.128L 2.716 10.248L 5.054 10.248L 4.732 9.128C 4.58267 8.64267 4.438 8.14333 4.298 7.63C 4.16733 7.11667 4.03667 6.608 3.906 6.104L 3.85 6.104C 3.71933 6.61733 3.58867 7.13067 3.458 7.644C 3.32733 8.148 3.18733 8.64267 3.038 9.128ZM -0.028 14L 2.954 4.844L 4.858 4.844L 7.84 14L 6.132 14L 5.418 11.522L 2.338 11.522L 1.624 14L -0.028 14ZM 8.82864 14L 8.82864 7.126L 10.1586 7.126L 10.2706 8.05L 10.3266 8.05C 10.6346 7.75133 10.966 7.49467 11.3206 7.28C 11.6846 7.06533 12.1046 6.958 12.5806 6.958C 13.318 6.958 13.8546 7.196 14.1906 7.672C 14.5266 8.13867 14.6946 8.81067 14.6946 9.688L 14.6946 14L 13.0846 14L 13.0846 9.898C 13.0846 9.32867 13.0006 8.92733 12.8326 8.694C 12.6646 8.46067 12.3893 8.344 12.0066 8.344C 11.708 8.344 11.442 8.41867 11.2086 8.568C 10.9846 8.708 10.728 8.918 10.4386 9.198L 10.4386 14L 8.82864 14ZM 18.3286 14.168C 17.722 14.168 17.232 13.986 16.8586 13.622C 16.4853 13.2487 16.2986 12.7587 16.2986 12.152C 16.2986 11.788 16.3733 11.466 16.5226 11.186C 16.6813 10.8967 16.924 10.6493 17.2506 10.444C 17.5866 10.2387 18.0066 10.066 18.5106 9.926C 19.024 9.786 19.6353 9.67867 20.3446 9.604C 20.3353 9.42667 20.3073 9.25867 20.2606 9.1C 20.2233 8.932 20.1533 8.78733 20.0506 8.666C 19.9573 8.53533 19.8313 8.43733 19.6726 8.372C 19.514 8.29733 19.318 8.26 19.0846 8.26C 18.7486 8.26 18.4173 8.32533 18.0906 8.456C 17.7733 8.58667 17.4606 8.74533 17.1526 8.932L 16.5646 7.854C 16.9473 7.61133 17.3766 7.40133 17.8526 7.224C 18.3286 7.04667 18.842 6.958 19.3926 6.958C 20.2513 6.958 20.8906 7.21467 21.3106 7.728C 21.74 8.232 21.9546 8.96467 21.9546 9.926L 21.9546 14L 20.6246 14L 20.5126 13.244L 20.4566 13.244C 20.1486 13.5053 19.8173 13.7247 19.4626 13.902C 19.1173 14.0793 18.7393 14.168 18.3286 14.168ZM 18.8466 12.908C 19.1266 12.908 19.3786 12.8427 19.6026 12.712C 19.836 12.5813 20.0833 12.3947 20.3446 12.152L 20.3446 10.612C 19.878 10.668 19.486 10.7427 19.1686 10.836C 18.8513 10.9293 18.5946 11.0367 18.3986 11.158C 18.2026 11.27 18.0626 11.4007 17.9786 11.55C 17.8946 11.6993 17.8526 11.858 17.8526 12.026C 17.8526 12.334 17.946 12.558 18.1326 12.698C 18.3193 12.838 18.5573 12.908 18.8466 12.908ZM 25.4494 14.168C 24.8707 14.168 24.4647 13.9953 24.2314 13.65C 23.998 13.3047 23.8814 12.8333 23.8814 12.236L 23.8814 4.116L 25.4914 4.116L 25.4914 12.32C 25.4914 12.516 25.5287 12.656 25.6034 12.74C 25.678 12.8147 25.7574 12.852 25.8414 12.852C 25.8787 12.852 25.9114 12.852 25.9394 12.852C 25.9767 12.852 26.028 12.8427 26.0934 12.824L 26.3034 14.028C 26.0887 14.1213 25.804 14.168 25.4494 14.168ZM 28.1442 16.828C 27.9575 16.828 27.7942 16.814 27.6542 16.786C 27.5142 16.7673 27.3788 16.7347 27.2482 16.688L 27.5422 15.428C 27.6075 15.4467 27.6822 15.4653 27.7662 15.484C 27.8595 15.512 27.9482 15.526 28.0322 15.526C 28.3962 15.526 28.6855 15.414 28.9002 15.19C 29.1242 14.9753 29.2922 14.6953 29.4042 14.35L 29.5302 13.916L 26.8282 7.126L 28.4662 7.126L 29.6562 10.5C 29.7588 10.7987 29.8568 11.116 29.9502 11.452C 30.0528 11.7787 30.1555 12.1053 30.2582 12.432L 30.3142 12.432C 30.3982 12.1147 30.4822 11.7927 30.5662 11.466C 30.6595 11.13 30.7482 10.808 30.8322 10.5L 31.8682 7.126L 33.4222 7.126L 30.9302 14.308C 30.7902 14.7 30.6362 15.05 30.4682 15.358C 30.3002 15.666 30.1042 15.9273 29.8802 16.142C 29.6655 16.366 29.4135 16.534 29.1242 16.646C 28.8442 16.7673 28.5175 16.828 28.1442 16.828ZM 36.5318 14.168C 36.0558 14.168 35.5845 14.0793 35.1178 13.902C 34.6605 13.7153 34.2638 13.4867 33.9278 13.216L 34.6838 12.18C 34.9918 12.4227 35.2951 12.614 35.5938 12.754C 35.9018 12.8847 36.2331 12.95 36.5878 12.95C 36.9611 12.95 37.2365 12.8753 37.4138 12.726C 37.5911 12.5673 37.6798 12.3667 37.6798 12.124C 37.6798 11.984 37.6378 11.8627 37.5538 11.76C 37.4698 11.648 37.3578 11.55 37.2178 11.466C 37.0778 11.382 36.9191 11.3073 36.7418 11.242C 36.5645 11.1673 36.3871 11.0927 36.2098 11.018C 35.9858 10.934 35.7571 10.836 35.5238 10.724C 35.2905 10.612 35.0805 10.4767 34.8938 10.318C 34.7165 10.1593 34.5671 9.97733 34.4458 9.772C 34.3338 9.55733 34.2778 9.30533 34.2778 9.016C 34.2778 8.40933 34.5018 7.91467 34.9498 7.532C 35.3978 7.14933 36.0091 6.958 36.7838 6.958C 37.2598 6.958 37.6891 7.042 38.0718 7.21C 38.4545 7.378 38.7858 7.56933 39.0658 7.784L 38.3238 8.764C 38.0811 8.58667 37.8338 8.44667 37.5818 8.344C 37.3391 8.232 37.0825 8.176 36.8118 8.176C 36.4665 8.176 36.2098 8.25067 36.0418 8.4C 35.8831 8.54 35.8038 8.71733 35.8038 8.932C 35.8038 9.072 35.8411 9.19333 35.9158 9.296C 35.9998 9.38933 36.1071 9.47333 36.2378 9.548C 36.3685 9.62267 36.5178 9.69267 36.6858 9.758C 36.8631 9.82333 37.0451 9.88867 37.2318 9.954C 37.4651 10.038 37.6985 10.136 37.9318 10.248C 38.1651 10.3507 38.3751 10.4813 38.5618 10.64C 38.7578 10.7987 38.9118 10.9947 39.0238 11.228C 39.1451 11.452 39.2058 11.7227 39.2058 12.04C 39.2058 12.3387 39.1451 12.6187 39.0238 12.88C 38.9118 13.132 38.7438 13.356 38.5198 13.552C 38.2958 13.7387 38.0158 13.888 37.6798 14C 37.3438 14.112 36.9611 14.168 36.5318 14.168ZM 40.6431 14L 40.6431 7.126L 42.2531 7.126L 42.2531 14L 40.6431 14ZM 41.4551 5.922C 41.1658 5.922 40.9278 5.838 40.7411 5.67C 40.5544 5.502 40.4611 5.28267 40.4611 5.012C 40.4611 4.74133 40.5544 4.522 40.7411 4.354C 40.9278 4.17667 41.1658 4.088 41.4551 4.088C 41.7444 4.088 41.9824 4.17667 42.1691 4.354C 42.3558 4.522 42.4491 4.74133 42.4491 5.012C 42.4491 5.28267 42.3558 5.502 42.1691 5.67C 41.9824 5.838 41.7444 5.922 41.4551 5.922ZM 46.2252 14.168C 45.7492 14.168 45.2778 14.0793 44.8112 13.902C 44.3538 13.7153 43.9572 13.4867 43.6212 13.216L 44.3772 12.18C 44.6852 12.4227 44.9885 12.614 45.2872 12.754C 45.5952 12.8847 45.9265 12.95 46.2812 12.95C 46.6545 12.95 46.9298 12.8753 47.1072 12.726C 47.2845 12.5673 47.3732 12.3667 47.3732 12.124C 47.3732 11.984 47.3312 11.8627 47.2472 11.76C 47.1632 11.648 47.0512 11.55 46.9112 11.466C 46.7712 11.382 46.6125 11.3073 46.4352 11.242C 46.2578 11.1673 46.0805 11.0927 45.9032 11.018C 45.6792 10.934 45.4505 10.836 45.2172 10.724C 44.9838 10.612 44.7738 10.4767 44.5872 10.318C 44.4098 10.1593 44.2605 9.97733 44.1392 9.772C 44.0272 9.55733 43.9712 9.30533 43.9712 9.016C 43.9712 8.40933 44.1952 7.91467 44.6432 7.532C 45.0912 7.14933 45.7025 6.958 46.4772 6.958C 46.9532 6.958 47.3825 7.042 47.7652 7.21C 48.1478 7.378 48.4792 7.56933 48.7592 7.784L 48.0172 8.764C 47.7745 8.58667 47.5272 8.44667 47.2752 8.344C 47.0325 8.232 46.7758 8.176 46.5052 8.176C 46.1598 8.176 45.9032 8.25067 45.7352 8.4C 45.5765 8.54 45.4972 8.71733 45.4972 8.932C 45.4972 9.072 45.5345 9.19333 45.6092 9.296C 45.6932 9.38933 45.8005 9.47333 45.9312 9.548C 46.0618 9.62267 46.2112 9.69267 46.3792 9.758C 46.5565 9.82333 46.7385 9.88867 46.9252 9.954C 47.1585 10.038 47.3918 10.136 47.6252 10.248C 47.8585 10.3507 48.0685 10.4813 48.2552 10.64C 48.4512 10.7987 48.6052 10.9947 48.7172 11.228C 48.8385 11.452 48.8992 11.7227 48.8992 12.04C 48.8992 12.3387 48.8385 12.6187 48.7172 12.88C 48.6052 13.132 48.4372 13.356 48.2132 13.552C 47.9892 13.7387 47.7092 13.888 47.3732 14C 47.0372 14.112 46.6545 14.168 46.2252 14.168ZM 55.4352 14.168C 54.9779 14.168 54.5672 14.1027 54.2032 13.972C 53.8485 13.832 53.5452 13.65 53.2932 13.426C 53.0412 13.1927 52.8452 12.922 52.7052 12.614C 52.5745 12.2967 52.5092 11.956 52.5092 11.592C 52.5092 11.2747 52.5559 10.99 52.6492 10.738C 52.7425 10.486 52.8685 10.2573 53.0272 10.052C 53.1952 9.83733 53.3819 9.646 53.5872 9.478C 53.8019 9.30067 54.0259 9.13267 54.2592 8.974C 54.0725 8.61933 53.9279 8.274 53.8252 7.938C 53.7225 7.602 53.6712 7.27533 53.6712 6.958C 53.6712 6.64067 53.7225 6.34667 53.8252 6.076C 53.9372 5.796 54.0959 5.55333 54.3012 5.348C 54.5065 5.14267 54.7492 4.97933 55.0292 4.858C 55.3092 4.73667 55.6265 4.676 55.9812 4.676C 56.6065 4.676 57.0965 4.85333 57.4512 5.208C 57.8152 5.56267 57.9972 6.034 57.9972 6.622C 57.9972 6.92067 57.9412 7.196 57.8292 7.448C 57.7172 7.7 57.5679 7.93333 57.3812 8.148C 57.1945 8.35333 56.9799 8.54933 56.7372 8.736C 56.5039 8.92267 56.2612 9.10467 56.0092 9.282C 56.2892 9.66467 56.6065 10.038 56.9612 10.402C 57.3252 10.7567 57.7032 11.0833 58.0952 11.382C 58.3472 11.046 58.5712 10.6773 58.7672 10.276C 58.9632 9.86533 59.1265 9.422 59.2572 8.946L 60.7412 8.946C 60.5732 9.52467 60.3585 10.08 60.0972 10.612C 59.8359 11.144 59.5279 11.648 59.1732 12.124C 59.4719 12.3107 59.7612 12.4693 60.0412 12.6C 60.3212 12.7213 60.5825 12.8053 60.8252 12.852L 60.4192 14.168C 60.0645 14.084 59.7005 13.9627 59.3272 13.804C 58.9539 13.636 58.5759 13.4307 58.1932 13.188C 57.8292 13.4867 57.4185 13.7247 56.9612 13.902C 56.5039 14.0793 55.9952 14.168 55.4352 14.168ZM 55.0152 6.944C 55.0152 7.15867 55.0479 7.378 55.1132 7.602C 55.1785 7.81667 55.2672 8.04533 55.3792 8.288C 55.7619 8.04533 56.0839 7.798 56.3452 7.546C 56.6065 7.294 56.7372 6.99067 56.7372 6.636C 56.7372 6.39333 56.6812 6.188 56.5692 6.02C 56.4572 5.852 56.2659 5.768 55.9952 5.768C 55.7059 5.768 55.4679 5.87533 55.2812 6.09C 55.1039 6.30467 55.0152 6.58933 55.0152 6.944ZM 55.6312 12.922C 55.8832 12.922 56.1305 12.8753 56.3732 12.782C 56.6252 12.6793 56.8679 12.544 57.1012 12.376C 56.6905 12.0307 56.2985 11.6667 55.9252 11.284C 55.5612 10.892 55.2299 10.486 54.9312 10.066C 54.6699 10.2807 54.4552 10.5047 54.2872 10.738C 54.1285 10.962 54.0492 11.214 54.0492 11.494C 54.0492 11.9233 54.1985 12.2687 54.4972 12.53C 54.7959 12.7913 55.1739 12.922 55.6312 12.922ZM 65.0233 14L 65.0233 4.844L 67.4733 4.844C 68.8733 4.844 69.9653 5.222 70.7493 5.978C 71.5333 6.734 71.9253 7.868 71.9253 9.38C 71.9253 10.136 71.8227 10.8033 71.6173 11.382C 71.4213 11.9607 71.132 12.446 70.7493 12.838C 70.376 13.2207 69.9187 13.51 69.3773 13.706C 68.8453 13.902 68.2387 14 67.5573 14L 65.0233 14ZM 66.6473 12.684L 67.3613 12.684C 68.2947 12.684 69.0087 12.418 69.5033 11.886C 70.0073 11.3447 70.2593 10.5093 70.2593 9.38C 70.2593 8.26 70.0073 7.44333 69.5033 6.93C 68.9993 6.41667 68.2853 6.16 67.3613 6.16L 66.6473 6.16L 66.6473 12.684ZM 76.5733 14.168C 76.0973 14.168 75.654 14.0887 75.2433 13.93C 74.8327 13.762 74.4733 13.524 74.1653 13.216C 73.8573 12.908 73.6147 12.5347 73.4373 12.096C 73.2693 11.648 73.1853 11.1393 73.1853 10.57C 73.1853 10.01 73.274 9.506 73.4513 9.058C 73.6287 8.61 73.862 8.232 74.1513 7.924C 74.45 7.616 74.7907 7.378 75.1733 7.21C 75.556 7.042 75.948 6.958 76.3493 6.958C 76.816 6.958 77.2267 7.03733 77.5813 7.196C 77.936 7.35467 78.23 7.57867 78.4633 7.868C 78.706 8.15733 78.888 8.50267 79.0093 8.904C 79.1307 9.30533 79.1913 9.744 79.1913 10.22C 79.1913 10.3787 79.182 10.528 79.1633 10.668C 79.154 10.808 79.14 10.92 79.1213 11.004L 74.7533 11.004C 74.828 11.62 75.0427 12.096 75.3973 12.432C 75.7613 12.7587 76.2233 12.922 76.7833 12.922C 77.082 12.922 77.3573 12.88 77.6093 12.796C 77.8707 12.7027 78.1273 12.5767 78.3793 12.418L 78.9253 13.426C 78.5987 13.6407 78.2347 13.818 77.8333 13.958C 77.432 14.098 77.012 14.168 76.5733 14.168ZM 74.7393 9.912L 77.7913 9.912C 77.7913 9.38 77.6747 8.96467 77.4413 8.666C 77.2173 8.358 76.8673 8.204 76.3913 8.204C 75.9807 8.204 75.6213 8.34867 75.3133 8.638C 75.0053 8.92733 74.814 9.352 74.7393 9.912ZM 82.647 14.168C 82.171 14.168 81.6997 14.0793 81.233 13.902C 80.7757 13.7153 80.379 13.4867 80.043 13.216L 80.799 12.18C 81.107 12.4227 81.4104 12.614 81.709 12.754C 82.017 12.8847 82.3484 12.95 82.703 12.95C 83.0764 12.95 83.3517 12.8753 83.529 12.726C 83.7064 12.5673 83.795 12.3667 83.795 12.124C 83.795 11.984 83.753 11.8627 83.669 11.76C 83.585 11.648 83.473 11.55 83.333 11.466C 83.193 11.382 83.0344 11.3073 82.857 11.242C 82.6797 11.1673 82.5024 11.0927 82.325 11.018C 82.101 10.934 81.8724 10.836 81.639 10.724C 81.4057 10.612 81.1957 10.4767 81.009 10.318C 80.8317 10.1593 80.6824 9.97733 80.561 9.772C 80.449 9.55733 80.393 9.30533 80.393 9.016C 80.393 8.40933 80.617 7.91467 81.065 7.532C 81.513 7.14933 82.1244 6.958 82.899 6.958C 83.375 6.958 83.8044 7.042 84.187 7.21C 84.5697 7.378 84.901 7.56933 85.181 7.784L 84.439 8.764C 84.1964 8.58667 83.949 8.44667 83.697 8.344C 83.4544 8.232 83.1977 8.176 82.927 8.176C 82.5817 8.176 82.325 8.25067 82.157 8.4C 81.9984 8.54 81.919 8.71733 81.919 8.932C 81.919 9.072 81.9564 9.19333 82.031 9.296C 82.115 9.38933 82.2224 9.47333 82.353 9.548C 82.4837 9.62267 82.633 9.69267 82.801 9.758C 82.9784 9.82333 83.1604 9.88867 83.347 9.954C 83.5804 10.038 83.8137 10.136 84.047 10.248C 84.2804 10.3507 84.4904 10.4813 84.677 10.64C 84.873 10.7987 85.027 10.9947 85.139 11.228C 85.2604 11.452 85.321 11.7227 85.321 12.04C 85.321 12.3387 85.2604 12.6187 85.139 12.88C 85.027 13.132 84.859 13.356 84.635 13.552C 84.411 13.7387 84.131 13.888 83.795 14C 83.459 14.112 83.0764 14.168 82.647 14.168ZM 86.7583 14L 86.7583 7.126L 88.3683 7.126L 88.3683 14L 86.7583 14ZM 87.5703 5.922C 87.281 5.922 87.043 5.838 86.8563 5.67C 86.6697 5.502 86.5763 5.28267 86.5763 5.012C 86.5763 4.74133 86.6697 4.522 86.8563 4.354C 87.043 4.17667 87.281 4.088 87.5703 4.088C 87.8597 4.088 88.0977 4.17667 88.2843 4.354C 88.471 4.522 88.5643 4.74133 88.5643 5.012C 88.5643 5.28267 88.471 5.502 88.2843 5.67C 88.0977 5.838 87.8597 5.922 87.5703 5.922ZM 92.8164 17.038C 92.4057 17.038 92.0231 17.0007 91.6684 16.926C 91.3231 16.8513 91.0244 16.7393 90.7724 16.59C 90.5204 16.4407 90.3197 16.254 90.1704 16.03C 90.0304 15.806 89.9604 15.5447 89.9604 15.246C 89.9604 14.9567 90.0444 14.686 90.2124 14.434C 90.3804 14.1913 90.6231 13.972 90.9404 13.776L 90.9404 13.72C 90.7631 13.608 90.6137 13.4587 90.4924 13.272C 90.3804 13.0853 90.3244 12.852 90.3244 12.572C 90.3244 12.3013 90.3991 12.0587 90.5484 11.844C 90.7071 11.62 90.8844 11.438 91.0804 11.298L 91.0804 11.242C 90.8471 11.0647 90.6371 10.822 90.4504 10.514C 90.2731 10.1967 90.1844 9.83267 90.1844 9.422C 90.1844 9.03 90.2591 8.68 90.4084 8.372C 90.5577 8.064 90.7537 7.80733 90.9964 7.602C 91.2484 7.38733 91.5377 7.22867 91.8644 7.126C 92.1911 7.014 92.5364 6.958 92.9004 6.958C 93.0871 6.958 93.2644 6.97667 93.4324 7.014C 93.6097 7.042 93.7684 7.07933 93.9084 7.126L 96.3724 7.126L 96.3724 8.316L 95.1124 8.316C 95.2244 8.44667 95.3177 8.61467 95.3924 8.82C 95.4671 9.016 95.5044 9.23533 95.5044 9.478C 95.5044 9.86067 95.4344 10.1967 95.2944 10.486C 95.1637 10.7753 94.9817 11.018 94.7484 11.214C 94.5151 11.41 94.2397 11.5593 93.9224 11.662C 93.6051 11.7647 93.2644 11.816 92.9004 11.816C 92.7511 11.816 92.5971 11.802 92.4384 11.774C 92.2797 11.746 92.1211 11.6993 91.9624 11.634C 91.8597 11.7273 91.7757 11.8207 91.7104 11.914C 91.6544 12.0073 91.6264 12.1333 91.6264 12.292C 91.6264 12.488 91.7057 12.642 91.8644 12.754C 92.0324 12.866 92.3264 12.922 92.7464 12.922L 93.9644 12.922C 94.7951 12.922 95.4204 13.0573 95.8404 13.328C 96.2697 13.5893 96.4844 14.0187 96.4844 14.616C 96.4844 14.952 96.3957 15.2693 96.2184 15.568C 96.0504 15.8667 95.8077 16.1233 95.4904 16.338C 95.1731 16.5527 94.7857 16.7207 94.3284 16.842C 93.8804 16.9727 93.3764 17.038 92.8164 17.038ZM 92.9004 10.808C 93.2271 10.808 93.5071 10.6913 93.7404 10.458C 93.9737 10.2153 94.0904 9.87 94.0904 9.422C 94.0904 8.99267 93.9737 8.66133 93.7404 8.428C 93.5164 8.18533 93.2364 8.064 92.9004 8.064C 92.5644 8.064 92.2797 8.18067 92.0464 8.414C 91.8131 8.64733 91.6964 8.98333 91.6964 9.422C 91.6964 9.87 91.8131 10.2153 92.0464 10.458C 92.2797 10.6913 92.5644 10.808 92.9004 10.808ZM 93.0684 15.988C 93.6284 15.988 94.0764 15.876 94.4124 15.652C 94.7577 15.4373 94.9304 15.1807 94.9304 14.882C 94.9304 14.6113 94.8231 14.4293 94.6084 14.336C 94.4031 14.2427 94.1044 14.196 93.7124 14.196L 92.7744 14.196C 92.4011 14.196 92.0884 14.1633 91.8364 14.098C 91.4817 14.3687 91.3044 14.672 91.3044 15.008C 91.3044 15.316 91.4584 15.554 91.7664 15.722C 92.0837 15.8993 92.5177 15.988 93.0684 15.988ZM 97.6958 14L 97.6958 7.126L 99.0258 7.126L 99.1378 8.05L 99.1938 8.05C 99.5018 7.75133 99.8332 7.49467 100.188 7.28C 100.552 7.06533 100.972 6.958 101.448 6.958C 102.185 6.958 102.722 7.196 103.058 7.672C 103.394 8.13867 103.562 8.81067 103.562 9.688L 103.562 14L 101.952 14L 101.952 9.898C 101.952 9.32867 101.868 8.92733 101.7 8.694C 101.532 8.46067 101.256 8.344 100.874 8.344C 100.575 8.344 100.309 8.41867 100.076 8.568C 99.8518 8.708 99.5952 8.918 99.3058 9.198L 99.3058 14L 97.6958 14Z"/>
<path id="path16_fill" d="M 1.162 14L 1.162 4.844L 2.786 4.844L 2.786 14L 1.162 14ZM 4.97317 14L 4.97317 7.126L 6.30317 7.126L 6.41517 8.064L 6.47117 8.064C 6.76051 7.756 7.07317 7.49467 7.40917 7.28C 7.75451 7.06533 8.14184 6.958 8.57117 6.958C 9.07517 6.958 9.47651 7.06533 9.77517 7.28C 10.0832 7.49467 10.3165 7.798 10.4752 8.19C 10.8018 7.83533 11.1425 7.54133 11.4972 7.308C 11.8518 7.07467 12.2485 6.958 12.6872 6.958C 13.4152 6.958 13.9518 7.196 14.2972 7.672C 14.6425 8.13867 14.8152 8.81067 14.8152 9.688L 14.8152 14L 13.1912 14L 13.1912 9.898C 13.1912 9.32867 13.1025 8.92733 12.9252 8.694C 12.7572 8.46067 12.4958 8.344 12.1412 8.344C 11.7118 8.344 11.2312 8.62867 10.6992 9.198L 10.6992 14L 9.08917 14L 9.08917 9.898C 9.08917 9.32867 9.00051 8.92733 8.82317 8.694C 8.65517 8.46067 8.38917 8.344 8.02517 8.344C 7.59584 8.344 7.11517 8.62867 6.58317 9.198L 6.58317 14L 4.97317 14ZM 16.772 16.716L 16.772 7.126L 18.102 7.126L 18.214 7.854L 18.27 7.854C 18.5593 7.61133 18.8813 7.40133 19.236 7.224C 19.5907 7.04667 19.9593 6.958 20.342 6.958C 20.7713 6.958 21.1493 7.042 21.476 7.21C 21.812 7.36867 22.0967 7.602 22.33 7.91C 22.5633 8.218 22.7407 8.58667 22.862 9.016C 22.9833 9.44533 23.044 9.926 23.044 10.458C 23.044 11.046 22.96 11.5733 22.792 12.04C 22.6333 12.4973 22.4187 12.8847 22.148 13.202C 21.8773 13.51 21.5647 13.748 21.21 13.916C 20.8553 14.084 20.4867 14.168 20.104 14.168C 19.8053 14.168 19.5067 14.1027 19.208 13.972C 18.9093 13.8413 18.62 13.6547 18.34 13.412L 18.382 14.56L 18.382 16.716L 16.772 16.716ZM 19.768 12.838C 20.2253 12.838 20.608 12.642 20.916 12.25C 21.224 11.8487 21.378 11.256 21.378 10.472C 21.378 9.78133 21.2613 9.24467 21.028 8.862C 20.7947 8.47933 20.4167 8.288 19.894 8.288C 19.4087 8.288 18.9047 8.54467 18.382 9.058L 18.382 12.264C 18.634 12.4787 18.8767 12.628 19.11 12.712C 19.3433 12.796 19.5627 12.838 19.768 12.838ZM 26.2423 14.168C 25.6637 14.168 25.2577 13.9953 25.0243 13.65C 24.791 13.3047 24.6743 12.8333 24.6743 12.236L 24.6743 4.116L 26.2843 4.116L 26.2843 12.32C 26.2843 12.516 26.3217 12.656 26.3963 12.74C 26.471 12.8147 26.5503 12.852 26.6343 12.852C 26.6717 12.852 26.7043 12.852 26.7323 12.852C 26.7697 12.852 26.821 12.8427 26.8863 12.824L 27.0963 14.028C 26.8817 14.1213 26.597 14.168 26.2423 14.168ZM 31.4151 14.168C 30.9391 14.168 30.4958 14.0887 30.0851 13.93C 29.6745 13.762 29.3151 13.524 29.0071 13.216C 28.6991 12.908 28.4565 12.5347 28.2791 12.096C 28.1111 11.648 28.0271 11.1393 28.0271 10.57C 28.0271 10.01 28.1158 9.506 28.2931 9.058C 28.4705 8.61 28.7038 8.232 28.9931 7.924C 29.2918 7.616 29.6325 7.378 30.0151 7.21C 30.3978 7.042 30.7898 6.958 31.1911 6.958C 31.6578 6.958 32.0685 7.03733 32.4231 7.196C 32.7778 7.35467 33.0718 7.57867 33.3051 7.868C 33.5478 8.15733 33.7298 8.50267 33.8511 8.904C 33.9725 9.30533 34.0331 9.744 34.0331 10.22C 34.0331 10.3787 34.0238 10.528 34.0051 10.668C 33.9958 10.808 33.9818 10.92 33.9631 11.004L 29.5951 11.004C 29.6698 11.62 29.8845 12.096 30.2391 12.432C 30.6031 12.7587 31.0651 12.922 31.6251 12.922C 31.9238 12.922 32.1991 12.88 32.4511 12.796C 32.7125 12.7027 32.9691 12.5767 33.2211 12.418L 33.7671 13.426C 33.4405 13.6407 33.0765 13.818 32.6751 13.958C 32.2738 14.098 31.8538 14.168 31.4151 14.168ZM 29.5811 9.912L 32.6331 9.912C 32.6331 9.38 32.5165 8.96467 32.2831 8.666C 32.0591 8.358 31.7091 8.204 31.2331 8.204C 30.8225 8.204 30.4631 8.34867 30.1551 8.638C 29.8471 8.92733 29.6558 9.352 29.5811 9.912ZM 35.5708 14L 35.5708 7.126L 36.9008 7.126L 37.0128 8.064L 37.0688 8.064C 37.3582 7.756 37.6708 7.49467 38.0068 7.28C 38.3522 7.06533 38.7395 6.958 39.1688 6.958C 39.6728 6.958 40.0742 7.06533 40.3728 7.28C 40.6808 7.49467 40.9142 7.798 41.0728 8.19C 41.3995 7.83533 41.7402 7.54133 42.0948 7.308C 42.4495 7.07467 42.8462 6.958 43.2848 6.958C 44.0128 6.958 44.5495 7.196 44.8948 7.672C 45.2402 8.13867 45.4128 8.81067 45.4128 9.688L 45.4128 14L 43.7888 14L 43.7888 9.898C 43.7888 9.32867 43.7002 8.92733 43.5228 8.694C 43.3548 8.46067 43.0935 8.344 42.7388 8.344C 42.3095 8.344 41.8288 8.62867 41.2968 9.198L 41.2968 14L 39.6868 14L 39.6868 9.898C 39.6868 9.32867 39.5982 8.92733 39.4208 8.694C 39.2528 8.46067 38.9868 8.344 38.6228 8.344C 38.1935 8.344 37.7128 8.62867 37.1808 9.198L 37.1808 14L 35.5708 14ZM 50.3097 14.168C 49.8337 14.168 49.3903 14.0887 48.9797 13.93C 48.569 13.762 48.2097 13.524 47.9017 13.216C 47.5937 12.908 47.351 12.5347 47.1737 12.096C 47.0057 11.648 46.9217 11.1393 46.9217 10.57C 46.9217 10.01 47.0103 9.506 47.1877 9.058C 47.365 8.61 47.5983 8.232 47.8877 7.924C 48.1863 7.616 48.527 7.378 48.9097 7.21C 49.2923 7.042 49.6843 6.958 50.0857 6.958C 50.5523 6.958 50.963 7.03733 51.3177 7.196C 51.6723 7.35467 51.9663 7.57867 52.1997 7.868C 52.4423 8.15733 52.6243 8.50267 52.7457 8.904C 52.867 9.30533 52.9277 9.744 52.9277 10.22C 52.9277 10.3787 52.9183 10.528 52.8997 10.668C 52.8903 10.808 52.8763 10.92 52.8577 11.004L 48.4897 11.004C 48.5643 11.62 48.779 12.096 49.1337 12.432C 49.4977 12.7587 49.9597 12.922 50.5197 12.922C 50.8183 12.922 51.0937 12.88 51.3457 12.796C 51.607 12.7027 51.8637 12.5767 52.1157 12.418L 52.6617 13.426C 52.335 13.6407 51.971 13.818 51.5697 13.958C 51.1683 14.098 50.7483 14.168 50.3097 14.168ZM 48.4757 9.912L 51.5277 9.912C 51.5277 9.38 51.411 8.96467 51.1777 8.666C 50.9537 8.358 50.6037 8.204 50.1277 8.204C 49.717 8.204 49.3577 8.34867 49.0497 8.638C 48.7417 8.92733 48.5503 9.352 48.4757 9.912ZM 54.4654 14L 54.4654 7.126L 55.7954 7.126L 55.9074 8.05L 55.9634 8.05C 56.2714 7.75133 56.6027 7.49467 56.9574 7.28C 57.3214 7.06533 57.7414 6.958 58.2174 6.958C 58.9547 6.958 59.4914 7.196 59.8274 7.672C 60.1634 8.13867 60.3314 8.81067 60.3314 9.688L 60.3314 14L 58.7214 14L 58.7214 9.898C 58.7214 9.32867 58.6374 8.92733 58.4694 8.694C 58.3014 8.46067 58.026 8.344 57.6434 8.344C 57.3447 8.344 57.0787 8.41867 56.8454 8.568C 56.6214 8.708 56.3647 8.918 56.0754 9.198L 56.0754 14L 54.4654 14ZM 64.7213 14.168C 64.32 14.168 63.9793 14.1073 63.6993 13.986C 63.4287 13.8647 63.2047 13.6967 63.0273 13.482C 62.8593 13.258 62.7333 12.9967 62.6493 12.698C 62.5747 12.39 62.5373 12.0493 62.5373 11.676L 62.5373 8.4L 61.5573 8.4L 61.5573 7.196L 62.6213 7.126L 62.8173 5.25L 64.1613 5.25L 64.1613 7.126L 65.9113 7.126L 65.9113 8.4L 64.1613 8.4L 64.1613 11.676C 64.1613 12.4787 64.4833 12.88 65.1273 12.88C 65.2487 12.88 65.37 12.866 65.4913 12.838C 65.622 12.81 65.7387 12.7727 65.8413 12.726L 66.1213 13.916C 65.9347 13.9813 65.72 14.0373 65.4773 14.084C 65.244 14.14 64.992 14.168 64.7213 14.168ZM 68.7232 14.168C 68.1165 14.168 67.6265 13.986 67.2532 13.622C 66.8798 13.2487 66.6932 12.7587 66.6932 12.152C 66.6932 11.788 66.7678 11.466 66.9172 11.186C 67.0758 10.8967 67.3185 10.6493 67.6452 10.444C 67.9812 10.2387 68.4012 10.066 68.9052 9.926C 69.4185 9.786 70.0298 9.67867 70.7392 9.604C 70.7298 9.42667 70.7018 9.25867 70.6552 9.1C 70.6178 8.932 70.5478 8.78733 70.4452 8.666C 70.3518 8.53533 70.2258 8.43733 70.0672 8.372C 69.9085 8.29733 69.7125 8.26 69.4792 8.26C 69.1432 8.26 68.8118 8.32533 68.4852 8.456C 68.1678 8.58667 67.8552 8.74533 67.5472 8.932L 66.9592 7.854C 67.3418 7.61133 67.7712 7.40133 68.2472 7.224C 68.7232 7.04667 69.2365 6.958 69.7872 6.958C 70.6458 6.958 71.2852 7.21467 71.7052 7.728C 72.1345 8.232 72.3492 8.96467 72.3492 9.926L 72.3492 14L 71.0192 14L 70.9072 13.244L 70.8512 13.244C 70.5432 13.5053 70.2118 13.7247 69.8572 13.902C 69.5118 14.0793 69.1338 14.168 68.7232 14.168ZM 69.2412 12.908C 69.5212 12.908 69.7732 12.8427 69.9972 12.712C 70.2305 12.5813 70.4778 12.3947 70.7392 12.152L 70.7392 10.612C 70.2725 10.668 69.8805 10.7427 69.5632 10.836C 69.2458 10.9293 68.9892 11.0367 68.7932 11.158C 68.5972 11.27 68.4572 11.4007 68.3732 11.55C 68.2892 11.6993 68.2472 11.858 68.2472 12.026C 68.2472 12.334 68.3405 12.558 68.5272 12.698C 68.7138 12.838 68.9518 12.908 69.2412 12.908ZM 76.4792 14.168C 76.0778 14.168 75.7372 14.1073 75.4572 13.986C 75.1865 13.8647 74.9625 13.6967 74.7852 13.482C 74.6172 13.258 74.4912 12.9967 74.4072 12.698C 74.3325 12.39 74.2952 12.0493 74.2952 11.676L 74.2952 8.4L 73.3152 8.4L 73.3152 7.196L 74.3792 7.126L 74.5752 5.25L 75.9192 5.25L 75.9192 7.126L 77.6692 7.126L 77.6692 8.4L 75.9192 8.4L 75.9192 11.676C 75.9192 12.4787 76.2412 12.88 76.8852 12.88C 77.0065 12.88 77.1278 12.866 77.2492 12.838C 77.3798 12.81 77.4965 12.7727 77.5992 12.726L 77.8792 13.916C 77.6925 13.9813 77.4778 14.0373 77.2352 14.084C 77.0018 14.14 76.7498 14.168 76.4792 14.168ZM 79.1158 14L 79.1158 7.126L 80.7258 7.126L 80.7258 14L 79.1158 14ZM 79.9278 5.922C 79.6384 5.922 79.4004 5.838 79.2138 5.67C 79.0271 5.502 78.9338 5.28267 78.9338 5.012C 78.9338 4.74133 79.0271 4.522 79.2138 4.354C 79.4004 4.17667 79.6384 4.088 79.9278 4.088C 80.2171 4.088 80.4551 4.17667 80.6418 4.354C 80.8284 4.522 80.9218 4.74133 80.9218 5.012C 80.9218 5.28267 80.8284 5.502 80.6418 5.67C 80.4551 5.838 80.2171 5.922 79.9278 5.922ZM 85.5938 14.168C 85.1645 14.168 84.7538 14.0887 84.3618 13.93C 83.9698 13.7713 83.6198 13.538 83.3118 13.23C 83.0131 12.922 82.7751 12.544 82.5978 12.096C 82.4205 11.648 82.3318 11.1393 82.3318 10.57C 82.3318 10.0007 82.4205 9.492 82.5978 9.044C 82.7751 8.596 83.0131 8.218 83.3118 7.91C 83.6198 7.602 83.9698 7.36867 84.3618 7.21C 84.7538 7.042 85.1645 6.958 85.5938 6.958C 86.0231 6.958 86.4338 7.042 86.8258 7.21C 87.2271 7.36867 87.5771 7.602 87.8758 7.91C 88.1745 8.218 88.4125 8.596 88.5898 9.044C 88.7765 9.492 88.8698 10.0007 88.8698 10.57C 88.8698 11.1393 88.7765 11.648 88.5898 12.096C 88.4125 12.544 88.1745 12.922 87.8758 13.23C 87.5771 13.538 87.2271 13.7713 86.8258 13.93C 86.4338 14.0887 86.0231 14.168 85.5938 14.168ZM 85.5938 12.852C 86.0978 12.852 86.4945 12.6467 86.7838 12.236C 87.0731 11.816 87.2178 11.2607 87.2178 10.57C 87.2178 9.87 87.0731 9.31467 86.7838 8.904C 86.4945 8.484 86.0978 8.274 85.5938 8.274C 85.0898 8.274 84.6931 8.484 84.4038 8.904C 84.1238 9.31467 83.9838 9.87 83.9838 10.57C 83.9838 11.2607 84.1238 11.816 84.4038 12.236C 84.6931 12.6467 85.0898 12.852 85.5938 12.852ZM 90.4634 14L 90.4634 7.126L 91.7934 7.126L 91.9054 8.05L 91.9614 8.05C 92.2694 7.75133 92.6007 7.49467 92.9554 7.28C 93.3194 7.06533 93.7394 6.958 94.2154 6.958C 94.9527 6.958 95.4894 7.196 95.8254 7.672C 96.1614 8.13867 96.3294 8.81067 96.3294 9.688L 96.3294 14L 94.7194 14L 94.7194 9.898C 94.7194 9.32867 94.6354 8.92733 94.4674 8.694C 94.2994 8.46067 94.0241 8.344 93.6414 8.344C 93.3427 8.344 93.0767 8.41867 92.8434 8.568C 92.6194 8.708 92.3627 8.918 92.0734 9.198L 92.0734 14L 90.4634 14Z"/>
<path id="path17_fill" d="M 1.162 14L 1.162 4.844L 3.612 4.844C 5.012 4.844 6.104 5.222 6.888 5.978C 7.672 6.734 8.064 7.868 8.064 9.38C 8.064 10.136 7.96133 10.8033 7.756 11.382C 7.56 11.9607 7.27067 12.446 6.888 12.838C 6.51467 13.2207 6.05733 13.51 5.516 13.706C 4.984 13.902 4.37733 14 3.696 14L 1.162 14ZM 2.786 12.684L 3.5 12.684C 4.43333 12.684 5.14733 12.418 5.642 11.886C 6.146 11.3447 6.398 10.5093 6.398 9.38C 6.398 8.26 6.146 7.44333 5.642 6.93C 5.138 6.41667 4.424 6.16 3.5 6.16L 2.786 6.16L 2.786 12.684ZM 12.712 14.168C 12.236 14.168 11.7927 14.0887 11.382 13.93C 10.9713 13.762 10.612 13.524 10.304 13.216C 9.996 12.908 9.75333 12.5347 9.576 12.096C 9.408 11.648 9.324 11.1393 9.324 10.57C 9.324 10.01 9.41267 9.506 9.59 9.058C 9.76733 8.61 10.0007 8.232 10.29 7.924C 10.5887 7.616 10.9293 7.378 11.312 7.21C 11.6947 7.042 12.0867 6.958 12.488 6.958C 12.9547 6.958 13.3653 7.03733 13.72 7.196C 14.0747 7.35467 14.3687 7.57867 14.602 7.868C 14.8447 8.15733 15.0267 8.50267 15.148 8.904C 15.2693 9.30533 15.33 9.744 15.33 10.22C 15.33 10.3787 15.3207 10.528 15.302 10.668C 15.2927 10.808 15.2787 10.92 15.26 11.004L 10.892 11.004C 10.9667 11.62 11.1813 12.096 11.536 12.432C 11.9 12.7587 12.362 12.922 12.922 12.922C 13.2207 12.922 13.496 12.88 13.748 12.796C 14.0093 12.7027 14.266 12.5767 14.518 12.418L 15.064 13.426C 14.7373 13.6407 14.3733 13.818 13.972 13.958C 13.5707 14.098 13.1507 14.168 12.712 14.168ZM 10.878 9.912L 13.93 9.912C 13.93 9.38 13.8133 8.96467 13.58 8.666C 13.356 8.358 13.006 8.204 12.53 8.204C 12.1193 8.204 11.76 8.34867 11.452 8.638C 11.144 8.92733 10.9527 9.352 10.878 9.912ZM 16.8677 16.716L 16.8677 7.126L 18.1977 7.126L 18.3097 7.854L 18.3657 7.854C 18.655 7.61133 18.977 7.40133 19.3317 7.224C 19.6864 7.04667 20.055 6.958 20.4377 6.958C 20.867 6.958 21.245 7.042 21.5717 7.21C 21.9077 7.36867 22.1924 7.602 22.4257 7.91C 22.659 8.218 22.8364 8.58667 22.9577 9.016C 23.079 9.44533 23.1397 9.926 23.1397 10.458C 23.1397 11.046 23.0557 11.5733 22.8877 12.04C 22.729 12.4973 22.5144 12.8847 22.2437 13.202C 21.973 13.51 21.6604 13.748 21.3057 13.916C 20.951 14.084 20.5824 14.168 20.1997 14.168C 19.901 14.168 19.6024 14.1027 19.3037 13.972C 19.005 13.8413 18.7157 13.6547 18.4357 13.412L 18.4777 14.56L 18.4777 16.716L 16.8677 16.716ZM 19.8637 12.838C 20.321 12.838 20.7037 12.642 21.0117 12.25C 21.3197 11.8487 21.4737 11.256 21.4737 10.472C 21.4737 9.78133 21.357 9.24467 21.1237 8.862C 20.8904 8.47933 20.5124 8.288 19.9897 8.288C 19.5044 8.288 19.0004 8.54467 18.4777 9.058L 18.4777 12.264C 18.7297 12.4787 18.9724 12.628 19.2057 12.712C 19.439 12.796 19.6584 12.838 19.8637 12.838ZM 26.338 14.168C 25.7594 14.168 25.3534 13.9953 25.12 13.65C 24.8867 13.3047 24.77 12.8333 24.77 12.236L 24.77 4.116L 26.38 4.116L 26.38 12.32C 26.38 12.516 26.4174 12.656 26.492 12.74C 26.5667 12.8147 26.646 12.852 26.73 12.852C 26.7674 12.852 26.8 12.852 26.828 12.852C 26.8654 12.852 26.9167 12.8427 26.982 12.824L 27.192 14.028C 26.9774 14.1213 26.6927 14.168 26.338 14.168ZM 31.3848 14.168C 30.9555 14.168 30.5448 14.0887 30.1528 13.93C 29.7608 13.7713 29.4108 13.538 29.1028 13.23C 28.8042 12.922 28.5662 12.544 28.3888 12.096C 28.2115 11.648 28.1228 11.1393 28.1228 10.57C 28.1228 10.0007 28.2115 9.492 28.3888 9.044C 28.5662 8.596 28.8042 8.218 29.1028 7.91C 29.4108 7.602 29.7608 7.36867 30.1528 7.21C 30.5448 7.042 30.9555 6.958 31.3848 6.958C 31.8142 6.958 32.2248 7.042 32.6168 7.21C 33.0182 7.36867 33.3682 7.602 33.6668 7.91C 33.9655 8.218 34.2035 8.596 34.3808 9.044C 34.5675 9.492 34.6608 10.0007 34.6608 10.57C 34.6608 11.1393 34.5675 11.648 34.3808 12.096C 34.2035 12.544 33.9655 12.922 33.6668 13.23C 33.3682 13.538 33.0182 13.7713 32.6168 13.93C 32.2248 14.0887 31.8142 14.168 31.3848 14.168ZM 31.3848 12.852C 31.8888 12.852 32.2855 12.6467 32.5748 12.236C 32.8642 11.816 33.0088 11.2607 33.0088 10.57C 33.0088 9.87 32.8642 9.31467 32.5748 8.904C 32.2855 8.484 31.8888 8.274 31.3848 8.274C 30.8808 8.274 30.4842 8.484 30.1948 8.904C 29.9148 9.31467 29.7748 9.87 29.7748 10.57C 29.7748 11.2607 29.9148 11.816 30.1948 12.236C 30.4842 12.6467 30.8808 12.852 31.3848 12.852ZM 36.6344 16.828C 36.4477 16.828 36.2844 16.814 36.1444 16.786C 36.0044 16.7673 35.8691 16.7347 35.7384 16.688L 36.0324 15.428C 36.0977 15.4467 36.1724 15.4653 36.2564 15.484C 36.3497 15.512 36.4384 15.526 36.5224 15.526C 36.8864 15.526 37.1757 15.414 37.3904 15.19C 37.6144 14.9753 37.7824 14.6953 37.8944 14.35L 38.0204 13.916L 35.3184 7.126L 36.9564 7.126L 38.1464 10.5C 38.2491 10.7987 38.3471 11.116 38.4404 11.452C 38.5431 11.7787 38.6457 12.1053 38.7484 12.432L 38.8044 12.432C 38.8884 12.1147 38.9724 11.7927 39.0564 11.466C 39.1497 11.13 39.2384 10.808 39.3224 10.5L 40.3584 7.126L 41.9124 7.126L 39.4204 14.308C 39.2804 14.7 39.1264 15.05 38.9584 15.358C 38.7904 15.666 38.5944 15.9273 38.3704 16.142C 38.1557 16.366 37.9037 16.534 37.6144 16.646C 37.3344 16.7673 37.0077 16.828 36.6344 16.828ZM 43.104 14L 43.104 7.126L 44.434 7.126L 44.546 8.064L 44.602 8.064C 44.8914 7.756 45.204 7.49467 45.54 7.28C 45.8854 7.06533 46.2727 6.958 46.702 6.958C 47.206 6.958 47.6074 7.06533 47.906 7.28C 48.214 7.49467 48.4474 7.798 48.606 8.19C 48.9327 7.83533 49.2734 7.54133 49.628 7.308C 49.9827 7.07467 50.3794 6.958 50.818 6.958C 51.546 6.958 52.0827 7.196 52.428 7.672C 52.7734 8.13867 52.946 8.81067 52.946 9.688L 52.946 14L 51.322 14L 51.322 9.898C 51.322 9.32867 51.2334 8.92733 51.056 8.694C 50.888 8.46067 50.6267 8.344 50.272 8.344C 49.8427 8.344 49.362 8.62867 48.83 9.198L 48.83 14L 47.22 14L 47.22 9.898C 47.22 9.32867 47.1314 8.92733 46.954 8.694C 46.786 8.46067 46.52 8.344 46.156 8.344C 45.7267 8.344 45.246 8.62867 44.714 9.198L 44.714 14L 43.104 14ZM 57.8429 14.168C 57.3669 14.168 56.9235 14.0887 56.5129 13.93C 56.1022 13.762 55.7429 13.524 55.4349 13.216C 55.1269 12.908 54.8842 12.5347 54.7069 12.096C 54.5389 11.648 54.4549 11.1393 54.4549 10.57C 54.4549 10.01 54.5435 9.506 54.7209 9.058C 54.8982 8.61 55.1315 8.232 55.4209 7.924C 55.7195 7.616 56.0602 7.378 56.4429 7.21C 56.8255 7.042 57.2175 6.958 57.6189 6.958C 58.0855 6.958 58.4962 7.03733 58.8509 7.196C 59.2055 7.35467 59.4995 7.57867 59.7329 7.868C 59.9755 8.15733 60.1575 8.50267 60.2789 8.904C 60.4002 9.30533 60.4609 9.744 60.4609 10.22C 60.4609 10.3787 60.4515 10.528 60.4329 10.668C 60.4235 10.808 60.4095 10.92 60.3909 11.004L 56.0229 11.004C 56.0975 11.62 56.3122 12.096 56.6669 12.432C 57.0309 12.7587 57.4929 12.922 58.0529 12.922C 58.3515 12.922 58.6269 12.88 58.8789 12.796C 59.1402 12.7027 59.3969 12.5767 59.6489 12.418L 60.1949 13.426C 59.8682 13.6407 59.5042 13.818 59.1029 13.958C 58.7015 14.098 58.2815 14.168 57.8429 14.168ZM 56.0089 9.912L 59.0609 9.912C 59.0609 9.38 58.9442 8.96467 58.7109 8.666C 58.4869 8.358 58.1369 8.204 57.6609 8.204C 57.2502 8.204 56.8909 8.34867 56.5829 8.638C 56.2749 8.92733 56.0835 9.352 56.0089 9.912ZM 61.9986 14L 61.9986 7.126L 63.3286 7.126L 63.4406 8.05L 63.4966 8.05C 63.8046 7.75133 64.1359 7.49467 64.4906 7.28C 64.8546 7.06533 65.2746 6.958 65.7506 6.958C 66.4879 6.958 67.0246 7.196 67.3606 7.672C 67.6966 8.13867 67.8646 8.81067 67.8646 9.688L 67.8646 14L 66.2546 14L 66.2546 9.898C 66.2546 9.32867 66.1706 8.92733 66.0026 8.694C 65.8346 8.46067 65.5592 8.344 65.1766 8.344C 64.8779 8.344 64.6119 8.41867 64.3786 8.568C 64.1546 8.708 63.8979 8.918 63.6086 9.198L 63.6086 14L 61.9986 14ZM 72.2545 14.168C 71.8532 14.168 71.5125 14.1073 71.2325 13.986C 70.9619 13.8647 70.7379 13.6967 70.5605 13.482C 70.3925 13.258 70.2665 12.9967 70.1825 12.698C 70.1079 12.39 70.0705 12.0493 70.0705 11.676L 70.0705 8.4L 69.0905 8.4L 69.0905 7.196L 70.1545 7.126L 70.3505 5.25L 71.6945 5.25L 71.6945 7.126L 73.4445 7.126L 73.4445 8.4L 71.6945 8.4L 71.6945 11.676C 71.6945 12.4787 72.0165 12.88 72.6605 12.88C 72.7819 12.88 72.9032 12.866 73.0245 12.838C 73.1552 12.81 73.2719 12.7727 73.3745 12.726L 73.6545 13.916C 73.4679 13.9813 73.2532 14.0373 73.0105 14.084C 72.7772 14.14 72.5252 14.168 72.2545 14.168Z"/>
<path id="path18_fill" d="M 3.01 14L 3.01 6.216L 0.364 6.216L 0.364 4.844L 7.28 4.844L 7.28 6.216L 4.634 6.216L 4.634 14L 3.01 14ZM 10.6065 14.168C 10.1305 14.168 9.6872 14.0887 9.27653 13.93C 8.86586 13.762 8.50653 13.524 8.19853 13.216C 7.89053 12.908 7.64786 12.5347 7.47053 12.096C 7.30253 11.648 7.21853 11.1393 7.21853 10.57C 7.21853 10.01 7.3072 9.506 7.48453 9.058C 7.66186 8.61 7.8952 8.232 8.18453 7.924C 8.4832 7.616 8.82386 7.378 9.20653 7.21C 9.5892 7.042 9.9812 6.958 10.3825 6.958C 10.8492 6.958 11.2599 7.03733 11.6145 7.196C 11.9692 7.35467 12.2632 7.57867 12.4965 7.868C 12.7392 8.15733 12.9212 8.50267 13.0425 8.904C 13.1639 9.30533 13.2245 9.744 13.2245 10.22C 13.2245 10.3787 13.2152 10.528 13.1965 10.668C 13.1872 10.808 13.1732 10.92 13.1545 11.004L 8.78653 11.004C 8.8612 11.62 9.07586 12.096 9.43053 12.432C 9.79453 12.7587 10.2565 12.922 10.8165 12.922C 11.1152 12.922 11.3905 12.88 11.6425 12.796C 11.9039 12.7027 12.1605 12.5767 12.4125 12.418L 12.9585 13.426C 12.6319 13.6407 12.2679 13.818 11.8665 13.958C 11.4652 14.098 11.0452 14.168 10.6065 14.168ZM 8.77253 9.912L 11.8245 9.912C 11.8245 9.38 11.7079 8.96467 11.4745 8.666C 11.2505 8.358 10.9005 8.204 10.4245 8.204C 10.0139 8.204 9.65453 8.34867 9.34653 8.638C 9.03853 8.92733 8.8472 9.352 8.77253 9.912ZM 16.6802 14.168C 16.2042 14.168 15.7329 14.0793 15.2662 13.902C 14.8089 13.7153 14.4122 13.4867 14.0762 13.216L 14.8322 12.18C 15.1402 12.4227 15.4436 12.614 15.7422 12.754C 16.0502 12.8847 16.3816 12.95 16.7362 12.95C 17.1096 12.95 17.3849 12.8753 17.5622 12.726C 17.7396 12.5673 17.8282 12.3667 17.8282 12.124C 17.8282 11.984 17.7862 11.8627 17.7022 11.76C 17.6182 11.648 17.5062 11.55 17.3662 11.466C 17.2262 11.382 17.0676 11.3073 16.8902 11.242C 16.7129 11.1673 16.5356 11.0927 16.3582 11.018C 16.1342 10.934 15.9056 10.836 15.6722 10.724C 15.4389 10.612 15.2289 10.4767 15.0422 10.318C 14.8649 10.1593 14.7156 9.97733 14.5942 9.772C 14.4822 9.55733 14.4262 9.30533 14.4262 9.016C 14.4262 8.40933 14.6502 7.91467 15.0982 7.532C 15.5462 7.14933 16.1576 6.958 16.9322 6.958C 17.4082 6.958 17.8376 7.042 18.2202 7.21C 18.6029 7.378 18.9342 7.56933 19.2142 7.784L 18.4722 8.764C 18.2296 8.58667 17.9822 8.44667 17.7302 8.344C 17.4876 8.232 17.2309 8.176 16.9602 8.176C 16.6149 8.176 16.3582 8.25067 16.1902 8.4C 16.0316 8.54 15.9522 8.71733 15.9522 8.932C 15.9522 9.072 15.9896 9.19333 16.0642 9.296C 16.1482 9.38933 16.2556 9.47333 16.3862 9.548C 16.5169 9.62267 16.6662 9.69267 16.8342 9.758C 17.0116 9.82333 17.1936 9.88867 17.3802 9.954C 17.6136 10.038 17.8469 10.136 18.0802 10.248C 18.3136 10.3507 18.5236 10.4813 18.7102 10.64C 18.9062 10.7987 19.0602 10.9947 19.1722 11.228C 19.2936 11.452 19.3542 11.7227 19.3542 12.04C 19.3542 12.3387 19.2936 12.6187 19.1722 12.88C 19.0602 13.132 18.8922 13.356 18.6682 13.552C 18.4442 13.7387 18.1642 13.888 17.8282 14C 17.4922 14.112 17.1096 14.168 16.6802 14.168ZM 22.9401 14.168C 22.5388 14.168 22.1981 14.1073 21.9181 13.986C 21.6474 13.8647 21.4234 13.6967 21.2461 13.482C 21.0781 13.258 20.9521 12.9967 20.8681 12.698C 20.7934 12.39 20.7561 12.0493 20.7561 11.676L 20.7561 8.4L 19.7761 8.4L 19.7761 7.196L 20.8401 7.126L 21.0361 5.25L 22.3801 5.25L 22.3801 7.126L 24.1301 7.126L 24.1301 8.4L 22.3801 8.4L 22.3801 11.676C 22.3801 12.4787 22.7021 12.88 23.3461 12.88C 23.4674 12.88 23.5888 12.866 23.7101 12.838C 23.8408 12.81 23.9574 12.7727 24.0601 12.726L 24.3401 13.916C 24.1534 13.9813 23.9388 14.0373 23.6961 14.084C 23.4628 14.14 23.2108 14.168 22.9401 14.168ZM 25.5767 14L 25.5767 7.126L 27.1867 7.126L 27.1867 14L 25.5767 14ZM 26.3887 5.922C 26.0994 5.922 25.8614 5.838 25.6747 5.67C 25.488 5.502 25.3947 5.28267 25.3947 5.012C 25.3947 4.74133 25.488 4.522 25.6747 4.354C 25.8614 4.17667 26.0994 4.088 26.3887 4.088C 26.678 4.088 26.916 4.17667 27.1027 4.354C 27.2894 4.522 27.3827 4.74133 27.3827 5.012C 27.3827 5.28267 27.2894 5.502 27.1027 5.67C 26.916 5.838 26.678 5.922 26.3887 5.922ZM 29.2407 14L 29.2407 7.126L 30.5708 7.126L 30.6827 8.05L 30.7387 8.05C 31.0467 7.75133 31.3781 7.49467 31.7327 7.28C 32.0968 7.06533 32.5168 6.958 32.9928 6.958C 33.7301 6.958 34.2668 7.196 34.6028 7.672C 34.9387 8.13867 35.1067 8.81067 35.1067 9.688L 35.1067 14L 33.4967 14L 33.4967 9.898C 33.4967 9.32867 33.4127 8.92733 33.2447 8.694C 33.0767 8.46067 32.8014 8.344 32.4188 8.344C 32.1201 8.344 31.8541 8.41867 31.6208 8.568C 31.3968 8.708 31.1401 8.918 30.8508 9.198L 30.8508 14L 29.2407 14ZM 39.4687 17.038C 39.0581 17.038 38.6754 17.0007 38.3207 16.926C 37.9754 16.8513 37.6767 16.7393 37.4247 16.59C 37.1727 16.4407 36.9721 16.254 36.8227 16.03C 36.6827 15.806 36.6127 15.5447 36.6127 15.246C 36.6127 14.9567 36.6967 14.686 36.8647 14.434C 37.0327 14.1913 37.2754 13.972 37.5927 13.776L 37.5927 13.72C 37.4154 13.608 37.2661 13.4587 37.1447 13.272C 37.0327 13.0853 36.9767 12.852 36.9767 12.572C 36.9767 12.3013 37.0514 12.0587 37.2007 11.844C 37.3594 11.62 37.5367 11.438 37.7327 11.298L 37.7327 11.242C 37.4994 11.0647 37.2894 10.822 37.1027 10.514C 36.9254 10.1967 36.8367 9.83267 36.8367 9.422C 36.8367 9.03 36.9114 8.68 37.0607 8.372C 37.2101 8.064 37.4061 7.80733 37.6487 7.602C 37.9007 7.38733 38.1901 7.22867 38.5167 7.126C 38.8434 7.014 39.1887 6.958 39.5527 6.958C 39.7394 6.958 39.9167 6.97667 40.0847 7.014C 40.2621 7.042 40.4207 7.07933 40.5607 7.126L 43.0247 7.126L 43.0247 8.316L 41.7647 8.316C 41.8767 8.44667 41.9701 8.61467 42.0447 8.82C 42.1194 9.016 42.1567 9.23533 42.1567 9.478C 42.1567 9.86067 42.0867 10.1967 41.9467 10.486C 41.8161 10.7753 41.6341 11.018 41.4007 11.214C 41.1674 11.41 40.8921 11.5593 40.5747 11.662C 40.2574 11.7647 39.9167 11.816 39.5527 11.816C 39.4034 11.816 39.2494 11.802 39.0907 11.774C 38.9321 11.746 38.7734 11.6993 38.6147 11.634C 38.5121 11.7273 38.4281 11.8207 38.3627 11.914C 38.3067 12.0073 38.2787 12.1333 38.2787 12.292C 38.2787 12.488 38.3581 12.642 38.5167 12.754C 38.6847 12.866 38.9787 12.922 39.3987 12.922L 40.6167 12.922C 41.4474 12.922 42.0727 13.0573 42.4927 13.328C 42.9221 13.5893 43.1367 14.0187 43.1367 14.616C 43.1367 14.952 43.0481 15.2693 42.8707 15.568C 42.7027 15.8667 42.4601 16.1233 42.1427 16.338C 41.8254 16.5527 41.4381 16.7207 40.9807 16.842C 40.5327 16.9727 40.0287 17.038 39.4687 17.038ZM 39.5527 10.808C 39.8794 10.808 40.1594 10.6913 40.3927 10.458C 40.6261 10.2153 40.7427 9.87 40.7427 9.422C 40.7427 8.99267 40.6261 8.66133 40.3927 8.428C 40.1687 8.18533 39.8887 8.064 39.5527 8.064C 39.2167 8.064 38.9321 8.18067 38.6987 8.414C 38.4654 8.64733 38.3487 8.98333 38.3487 9.422C 38.3487 9.87 38.4654 10.2153 38.6987 10.458C 38.9321 10.6913 39.2167 10.808 39.5527 10.808ZM 39.7207 15.988C 40.2807 15.988 40.7287 15.876 41.0647 15.652C 41.4101 15.4373 41.5827 15.1807 41.5827 14.882C 41.5827 14.6113 41.4754 14.4293 41.2607 14.336C 41.0554 14.2427 40.7567 14.196 40.3647 14.196L 39.4267 14.196C 39.0534 14.196 38.7407 14.1633 38.4887 14.098C 38.1341 14.3687 37.9567 14.672 37.9567 15.008C 37.9567 15.316 38.1107 15.554 38.4187 15.722C 38.7361 15.8993 39.1701 15.988 39.7207 15.988Z"/>
<path id="path19_fill" d="M 1.162 14L 1.162 4.844L 6.678 4.844L 6.678 6.216L 2.786 6.216L 2.786 8.554L 6.076 8.554L 6.076 9.926L 2.786 9.926L 2.786 12.628L 6.818 12.628L 6.818 14L 1.162 14ZM 9.95848 14L 7.56448 7.126L 9.20248 7.126L 10.2945 10.696C 10.3878 11.032 10.4812 11.3727 10.5745 11.718C 10.6772 12.0633 10.7752 12.4133 10.8685 12.768L 10.9245 12.768C 11.0272 12.4133 11.1252 12.0633 11.2185 11.718C 11.3118 11.3727 11.4098 11.032 11.5125 10.696L 12.6045 7.126L 14.1585 7.126L 11.8205 14L 9.95848 14ZM 16.7427 14.168C 16.136 14.168 15.646 13.986 15.2727 13.622C 14.8994 13.2487 14.7127 12.7587 14.7127 12.152C 14.7127 11.788 14.7874 11.466 14.9367 11.186C 15.0954 10.8967 15.338 10.6493 15.6647 10.444C 16.0007 10.2387 16.4207 10.066 16.9247 9.926C 17.438 9.786 18.0494 9.67867 18.7587 9.604C 18.7494 9.42667 18.7214 9.25867 18.6747 9.1C 18.6374 8.932 18.5674 8.78733 18.4647 8.666C 18.3714 8.53533 18.2454 8.43733 18.0867 8.372C 17.928 8.29733 17.732 8.26 17.4987 8.26C 17.1627 8.26 16.8314 8.32533 16.5047 8.456C 16.1874 8.58667 15.8747 8.74533 15.5667 8.932L 14.9787 7.854C 15.3614 7.61133 15.7907 7.40133 16.2667 7.224C 16.7427 7.04667 17.256 6.958 17.8067 6.958C 18.6654 6.958 19.3047 7.21467 19.7247 7.728C 20.154 8.232 20.3687 8.96467 20.3687 9.926L 20.3687 14L 19.0387 14L 18.9267 13.244L 18.8707 13.244C 18.5627 13.5053 18.2314 13.7247 17.8767 13.902C 17.5314 14.0793 17.1534 14.168 16.7427 14.168ZM 17.2607 12.908C 17.5407 12.908 17.7927 12.8427 18.0167 12.712C 18.25 12.5813 18.4974 12.3947 18.7587 12.152L 18.7587 10.612C 18.292 10.668 17.9 10.7427 17.5827 10.836C 17.2654 10.9293 17.0087 11.0367 16.8127 11.158C 16.6167 11.27 16.4767 11.4007 16.3927 11.55C 16.3087 11.6993 16.2667 11.858 16.2667 12.026C 16.2667 12.334 16.36 12.558 16.5467 12.698C 16.7334 12.838 16.9714 12.908 17.2607 12.908ZM 23.8634 14.168C 23.2848 14.168 22.8788 13.9953 22.6454 13.65C 22.4121 13.3047 22.2954 12.8333 22.2954 12.236L 22.2954 4.116L 23.9054 4.116L 23.9054 12.32C 23.9054 12.516 23.9428 12.656 24.0174 12.74C 24.0921 12.8147 24.1714 12.852 24.2554 12.852C 24.2928 12.852 24.3254 12.852 24.3534 12.852C 24.3908 12.852 24.4421 12.8427 24.5074 12.824L 24.7174 14.028C 24.5028 14.1213 24.2181 14.168 23.8634 14.168ZM 28.1402 14.168C 27.4029 14.168 26.8662 13.9347 26.5302 13.468C 26.1942 12.992 26.0262 12.3153 26.0262 11.438L 26.0262 7.126L 27.6362 7.126L 27.6362 11.228C 27.6362 11.7973 27.7202 12.1987 27.8882 12.432C 28.0562 12.6653 28.3269 12.782 28.7002 12.782C 28.9989 12.782 29.2602 12.7073 29.4842 12.558C 29.7176 12.4087 29.9649 12.166 30.2262 11.83L 30.2262 7.126L 31.8362 7.126L 31.8362 14L 30.5202 14L 30.3942 12.992L 30.3522 12.992C 30.0536 13.3467 29.7269 13.6313 29.3722 13.846C 29.0269 14.0607 28.6162 14.168 28.1402 14.168ZM 35.5415 14.168C 34.9348 14.168 34.4448 13.986 34.0715 13.622C 33.6982 13.2487 33.5115 12.7587 33.5115 12.152C 33.5115 11.788 33.5862 11.466 33.7355 11.186C 33.8942 10.8967 34.1368 10.6493 34.4635 10.444C 34.7995 10.2387 35.2195 10.066 35.7235 9.926C 36.2368 9.786 36.8482 9.67867 37.5575 9.604C 37.5482 9.42667 37.5202 9.25867 37.4735 9.1C 37.4362 8.932 37.3662 8.78733 37.2635 8.666C 37.1702 8.53533 37.0442 8.43733 36.8855 8.372C 36.7268 8.29733 36.5308 8.26 36.2975 8.26C 35.9615 8.26 35.6302 8.32533 35.3035 8.456C 34.9862 8.58667 34.6735 8.74533 34.3655 8.932L 33.7775 7.854C 34.1602 7.61133 34.5895 7.40133 35.0655 7.224C 35.5415 7.04667 36.0548 6.958 36.6055 6.958C 37.4642 6.958 38.1035 7.21467 38.5235 7.728C 38.9528 8.232 39.1675 8.96467 39.1675 9.926L 39.1675 14L 37.8375 14L 37.7255 13.244L 37.6695 13.244C 37.3615 13.5053 37.0302 13.7247 36.6755 13.902C 36.3302 14.0793 35.9522 14.168 35.5415 14.168ZM 36.0595 12.908C 36.3395 12.908 36.5915 12.8427 36.8155 12.712C 37.0488 12.5813 37.2962 12.3947 37.5575 12.152L 37.5575 10.612C 37.0908 10.668 36.6988 10.7427 36.3815 10.836C 36.0642 10.9293 35.8075 11.0367 35.6115 11.158C 35.4155 11.27 35.2755 11.4007 35.1915 11.55C 35.1075 11.6993 35.0655 11.858 35.0655 12.026C 35.0655 12.334 35.1588 12.558 35.3455 12.698C 35.5322 12.838 35.7702 12.908 36.0595 12.908ZM 43.2975 14.168C 42.8962 14.168 42.5555 14.1073 42.2755 13.986C 42.0048 13.8647 41.7808 13.6967 41.6035 13.482C 41.4355 13.258 41.3095 12.9967 41.2255 12.698C 41.1508 12.39 41.1135 12.0493 41.1135 11.676L 41.1135 8.4L 40.1335 8.4L 40.1335 7.196L 41.1975 7.126L 41.3935 5.25L 42.7375 5.25L 42.7375 7.126L 44.4875 7.126L 44.4875 8.4L 42.7375 8.4L 42.7375 11.676C 42.7375 12.4787 43.0595 12.88 43.7035 12.88C 43.8248 12.88 43.9462 12.866 44.0675 12.838C 44.1982 12.81 44.3148 12.7727 44.4175 12.726L 44.6975 13.916C 44.5108 13.9813 44.2962 14.0373 44.0535 14.084C 43.8202 14.14 43.5682 14.168 43.2975 14.168ZM 45.9341 14L 45.9341 7.126L 47.5441 7.126L 47.5441 14L 45.9341 14ZM 46.7461 5.922C 46.4568 5.922 46.2188 5.838 46.0321 5.67C 45.8454 5.502 45.7521 5.28267 45.7521 5.012C 45.7521 4.74133 45.8454 4.522 46.0321 4.354C 46.2188 4.17667 46.4568 4.088 46.7461 4.088C 47.0354 4.088 47.2734 4.17667 47.4601 4.354C 47.6468 4.522 47.7401 4.74133 47.7401 5.012C 47.7401 5.28267 47.6468 5.502 47.4601 5.67C 47.2734 5.838 47.0354 5.922 46.7461 5.922ZM 52.4122 14.168C 51.9828 14.168 51.5722 14.0887 51.1802 13.93C 50.7882 13.7713 50.4382 13.538 50.1302 13.23C 49.8315 12.922 49.5935 12.544 49.4162 12.096C 49.2388 11.648 49.1502 11.1393 49.1502 10.57C 49.1502 10.0007 49.2388 9.492 49.4162 9.044C 49.5935 8.596 49.8315 8.218 50.1302 7.91C 50.4382 7.602 50.7882 7.36867 51.1802 7.21C 51.5722 7.042 51.9828 6.958 52.4122 6.958C 52.8415 6.958 53.2522 7.042 53.6442 7.21C 54.0455 7.36867 54.3955 7.602 54.6942 7.91C 54.9928 8.218 55.2308 8.596 55.4082 9.044C 55.5948 9.492 55.6882 10.0007 55.6882 10.57C 55.6882 11.1393 55.5948 11.648 55.4082 12.096C 55.2308 12.544 54.9928 12.922 54.6942 13.23C 54.3955 13.538 54.0455 13.7713 53.6442 13.93C 53.2522 14.0887 52.8415 14.168 52.4122 14.168ZM 52.4122 12.852C 52.9162 12.852 53.3128 12.6467 53.6022 12.236C 53.8915 11.816 54.0362 11.2607 54.0362 10.57C 54.0362 9.87 53.8915 9.31467 53.6022 8.904C 53.3128 8.484 52.9162 8.274 52.4122 8.274C 51.9082 8.274 51.5115 8.484 51.2222 8.904C 50.9422 9.31467 50.8022 9.87 50.8022 10.57C 50.8022 11.2607 50.9422 11.816 51.2222 12.236C 51.5115 12.6467 51.9082 12.852 52.4122 12.852ZM 57.2818 14L 57.2818 7.126L 58.6118 7.126L 58.7238 8.05L 58.7798 8.05C 59.0878 7.75133 59.4191 7.49467 59.7738 7.28C 60.1378 7.06533 60.5578 6.958 61.0338 6.958C 61.7711 6.958 62.3078 7.196 62.6438 7.672C 62.9798 8.13867 63.1478 8.81067 63.1478 9.688L 63.1478 14L 61.5378 14L 61.5378 9.898C 61.5378 9.32867 61.4538 8.92733 61.2858 8.694C 61.1178 8.46067 60.8424 8.344 60.4598 8.344C 60.1611 8.344 59.8951 8.41867 59.6618 8.568C 59.4378 8.708 59.1811 8.918 58.8918 9.198L 58.8918 14L 57.2818 14Z"/>
</defs>
</svg>
