<?xml version="1.0" encoding="UTF-8" standalone="no"?>
<!-- Created with Inkscape (http://www.inkscape.org/) -->
<svg
   xmlns:svg="http://www.w3.org/2000/svg"
   xmlns="http://www.w3.org/2000/svg"
   version="1.0"
   width="306.10001"
   height="217.88"
   id="svg2">
  <defs
     id="defs4">
    <clipPath
       id="clipPath2522">
      <path
         d="M 0,382.677 L 419.528,382.677 L 419.528,595.275 L 0,595.275 L 0,382.677 z"
         id="path2524" />
    </clipPath>
    <clipPath
       id="clipPath2434">
      <path
         d="M 158.032,34.724 L 262.914,34.724 L 262.914,128.267 L 158.032,128.267 L 158.032,34.724 z"
         id="path2436" />
    </clipPath>
    <clipPath
       id="clipPath2418">
      <path
         d="M 0,0 L 419.528,0 L 419.528,595.276 L 0,595.276 L 0,0 z"
         id="path2420" />
    </clipPath>
  </defs>
  <g
     transform="translate(-20.929381,-30.559945)"
     id="layer1">
    <g
       transform="matrix(2.649998,0,0,2.649998,-1108.3682,-2090.8473)"
       id="g2777">
      <g
         transform="matrix(0.6716537,0,0,0.6729507,440.11307,864.7963)"
         id="g2438">
        <path
           d="M 0,0 C -1.292,-0.748 -2.595,-1.165 -3.692,-1.165 C -4.59,-1.165 -5.812,-0.994 -5.812,0.902 C -5.812,3.827 -0.009,5.182 -0.009,11.266 C -0.009,15.579 -2.727,20.983 -9.325,20.983 C -11.649,20.983 -13.188,20.607 -15.171,20.149 L -15.171,11.987 C -13.222,12.487 -12.48,12.908 -11.239,12.908 C -9.928,12.908 -9.307,12.44 -9.307,11.178 C -9.307,8.091 -15.057,6.461 -15.057,0.559 C -15.057,-5.289 -11.383,-8.866 -6.211,-8.866 C -4.116,-8.866 -1.743,-8.677 0,-8.218 L 0,0 z"
           id="path2440"
           style="fill:#84b819;fill-opacity:1;fill-rule:nonzero;stroke:none" />
      </g>
      <g
         transform="matrix(0.6716537,0,0,0.6729507,440.62273,878.52738)"
         id="g2442">
        <path
           d="M 0,0 L 0,-28.617 L 15.299,-28.617 L 16.968,-21.156 L 7.669,-21.156 L 7.669,-18.105 L 13.668,-18.105 L 13.668,-10.971 L 7.669,-10.971 L 7.669,-7.712 L 17.046,-7.712 L 15.337,0 L 0,0 z"
           id="path2444"
           style="fill:#84b819;fill-opacity:1;fill-rule:nonzero;stroke:none" />
      </g>
      <g
         transform="matrix(0.6716537,0,0,0.6729507,452.36879,859.26941)"
         id="g2446">
        <path
           d="M 0,0 L 4.323,0 L 13.495,11.159 L 13.565,11.159 L 13.565,0 L 21.855,0.003 L 21.855,28.617 L 17.776,28.617 L 8.393,17.365 L 8.322,17.365 L 8.322,28.617 L 0,28.614 L 0,0 z"
           id="path2448"
           style="fill:#84b819;fill-opacity:1;fill-rule:nonzero;stroke:none" />
      </g>
      <g
         transform="matrix(0.6716537,0,0,0.6729507,461.47642,857.79439)"
         id="g2450">
        <path
           d="M 0,0 L 0,-28.618 L 9.296,-28.618 C 16.751,-28.618 19.707,-23.26 19.707,-17.918 C 19.707,-11.96 15.959,-7.626 10.171,-7.626 L 7.964,-7.626 L 7.964,-0.003 L 0,0 z M 7.9,-15.052 L 9.136,-15.052 C 11.046,-15.052 11.945,-16.597 11.945,-18.233 C 11.945,-19.87 11.046,-21.416 9.136,-21.416 L 7.9,-21.416 L 7.9,-15.052 z"
           id="path2452"
           style="fill:#84b819;fill-opacity:1;fill-rule:nonzero;stroke:none" />
      </g>
      <g
         transform="matrix(0.6716537,0,0,0.6729507,474.89479,838.52854)"
         id="g2454">
        <path
           d="M 0,0 L 10.794,0 C 18.479,0 20.137,5.443 20.137,9.238 C 20.137,11.618 19.245,14.556 16.409,16.587 L 21.45,28.626 L 12.985,28.629 L 8.267,17.888 L 8.099,17.888 L 8.099,28.626 L 0,28.629 L 0,0 z M 8.094,13.032 L 9.105,13.032 C 10.98,13.032 11.805,11.778 11.805,10.007 C 11.805,8.274 10.98,7.02 9.105,7.02 L 8.094,7.02 L 8.094,13.032 z"
           id="path2456"
           style="fill:#84b819;fill-opacity:1;fill-rule:nonzero;stroke:none" />
      </g>
      <g
         transform="matrix(0.6716537,0,0,0.6729507,508.25838,848.21702)"
         id="g2458">
        <path
           d="M 0,0 C 0,7.254 -5.066,14.881 -14.916,14.881 C -24.766,14.881 -29.832,7.254 -29.832,0 C -29.832,-7.254 -24.766,-14.882 -14.916,-14.882 C -5.066,-14.882 0,-7.254 0,0 M -21.458,-0.109 C -21.458,3.359 -18.966,6.697 -14.737,6.697 C -10.51,6.697 -8.018,3.359 -8.018,-0.109 C -8.018,-3.577 -10.51,-6.915 -14.737,-6.915 C -18.966,-6.915 -21.458,-3.577 -21.458,-0.109"
           id="path2460"
           style="fill:#84b819;fill-opacity:1;fill-rule:nonzero;stroke:none" />
      </g>
      <g
         transform="matrix(0.6716537,0,0,0.6729507,467.99852,878.52738)"
         id="g2462">
        <path
           d="M 0,0 L 0,-28.617 L 15.299,-28.617 L 16.969,-21.156 L 7.669,-21.156 L 7.669,-18.105 L 13.668,-18.105 L 13.668,-10.971 L 7.669,-10.971 L 7.669,-7.712 L 17.046,-7.712 L 15.338,0 L 0,0 z"
           id="path2464"
           style="fill:#84b819;fill-opacity:1;fill-rule:nonzero;stroke:none" />
      </g>
      <g
         transform="matrix(0.6716537,0,0,0.6729507,506.98003,859.27138)"
         id="g2466">
        <path
           d="M 0,0 L 0,19.093 C 0,20.578 0.484,21.469 2.112,21.469 C 3.697,21.469 4.006,20.451 4.006,19.093 L 4.006,-0.003 L 44.267,-0.003 L 45.938,7.458 L 36.638,7.458 L 36.638,10.51 L 42.637,10.51 L 42.637,17.643 L 36.638,17.643 L 36.638,20.902 L 46.016,20.902 L 44.307,28.614 L 28.969,28.614 L 28.981,7.758 L 24.336,7.758 L 24.336,28.611 L 16.044,28.608 L 16.044,7.758 L 12.053,7.758 L 12.042,19.354 C 12.042,26.153 7.778,29.282 1.326,29.282 C -4.32,29.282 -8.122,25.736 -8.122,19.437 L -8.112,7.761 L -11.938,7.761 L -11.938,28.614 L -20.231,28.611 L -20.231,7.761 L -23.906,7.761 L -23.904,8.812 C -25.308,8.102 -25.883,7.756 -27.707,7.756 C -31.673,7.756 -34.528,10.092 -34.528,14.306 C -34.528,18.352 -31.396,20.855 -27.865,20.855 C -26.317,20.855 -25.093,20.611 -24.01,20.085 L -24.193,28.364 C -25.675,28.823 -27.353,28.837 -29.013,28.837 C -36.463,28.837 -42.6,23.012 -42.6,14.558 C -42.6,5.982 -36.683,-0.384 -28.326,-0.384 C -26.845,-0.384 -25.584,-0.329 -24.483,0.005 L 0,-0.003 L 0,0 z"
           id="path2468"
           style="fill:#84b819;fill-opacity:1;fill-rule:nonzero;stroke:none" />
      </g>
      <g
         transform="matrix(0.6716537,0,0,0.6729507,481.71557,836.71076)"
         id="g2470">
        <path
           d="M 0,0 L 0,-14.06 L -19.742,0.059 L -25.332,0.059 L -0.117,-48.154 L 5.507,-48.154 L 30.722,0.059 L 25.131,0.059 L 5.39,-14.06 L 5.39,0 L 0,0 z M -16.356,-7.533 L -16.321,-7.504 L 0,-20.035 L 0.038,-40.118 C 0.038,-40.118 0.029,-40.167 0.012,-40.128 C -0.372,-39.259 -4.874,-29.08 -7.64,-23.712 C -10.545,-18.072 -16.356,-7.533 -16.356,-7.533 M 13.028,-23.712 C 10.263,-29.08 5.761,-39.259 5.377,-40.128 C 5.36,-40.167 5.351,-40.118 5.351,-40.118 L 5.39,-20.035 L 21.71,-7.504 L 21.745,-7.533 C 21.745,-7.533 15.934,-18.072 13.028,-23.712"
           id="path2472"
           style="fill:#84b819;fill-opacity:1;fill-rule:nonzero;stroke:none" />
      </g>
    </g>
  </g>
</svg>
